<?xml version="1.0" standalone="no"?>
<!DOCTYPE svg PUBLIC "-//W3C//DTD SVG 1.1//EN" "http://www.w3.org/Graphics/SVG/1.1/DTD/svg11.dtd" >
<!--
2013-9-30: Created.
-->
<svg>
<metadata>
Created by iconfont
</metadata>
<defs>

<font id="iconfont" horiz-adv-x="1024" >
  <font-face
    font-family="iconfont"
    font-weight="500"
    font-stretch="normal"
    units-per-em="1024"
    ascent="896"
    descent="-128"
  />
    <missing-glyph />
    
    <glyph glyph-name="minimum" unicode="&#58980;" d="M72 434h880v-100h-880z"  horiz-adv-x="1024" />

    
    <glyph glyph-name="maximize" unicode="&#58981;" d="M860 684v-600h-696v600h696M960 784h-896v-800h896v800zM960 604.5h-896v-100h896v100z"  horiz-adv-x="1024" />

    
    <glyph glyph-name="laptop" unicode="&#59016;" d="M917 224v540h-810v-540h-43v-220h896v220h-43zM157 714h710v-490h-710v490zM910 54h-796v120h298v-39.8h200v39.8h298v-120zM487 696.4h50v-50h-50v50z"  horiz-adv-x="1024" />

    
    <glyph glyph-name="help" unicode="&#59017;" d="M512 829c-245.8 0-445-199.2-445-445s199.2-445 445-445 445 199.2 445 445-199.2 445-445 445zM791.3 104.7c-36.3-36.3-78.5-64.8-125.6-84.7-48.7-20.6-100.4-31-153.7-31s-105.1 10.4-153.7 31c-47 19.9-89.3 48.4-125.6 84.7-36.3 36.3-64.8 78.5-84.7 125.6-20.6 48.7-31 100.4-31 153.7s10.4 105.1 31 153.7c19.9 47 48.4 89.3 84.7 125.6 36.3 36.3 78.5 64.8 125.6 84.7 48.7 20.6 100.4 31 153.7 31s105.1-10.4 153.7-31c47-19.9 89.3-48.4 125.6-84.7 36.3-36.3 64.8-78.5 84.7-125.6 20.6-48.7 31-100.4 31-153.7s-10.4-105.1-31-153.7c-19.9-47.1-48.4-89.3-84.7-125.6zM473 164.7h50v-50h-50v50zM712 453.3c0-106.8-83.7-194-189-199.7v-50h-50v100h49.4c36.2 2.5 69.8 17.7 95.7 43.6 28.3 28.3 43.9 66 43.9 106.1 0 40.1-15.6 77.7-43.9 106.1-28.3 28.3-66 43.9-106.1 43.9s-77.7-15.6-106.1-43.9c-28.3-28.3-43.9-66-43.9-106.1v-34.7h-50v34.7c0 110.5 89.5 200 200 200s200-89.5 200-200z"  horiz-adv-x="1024" />

    
    <glyph glyph-name="excel" unicode="&#59018;" d="M474.7 337.79999999999995L352.7 191 426 47.39999999999998h-54.7l-29 59.1c-6.2 12.6-13.2 28.2-21.1 46.8l-86.4-105.8h-62.1L299 194.89999999999998l-72.5 143h54.7l24.6-51.7c9.1-19.3 17.3-37.8 24.6-55.5l83.7 107.2h60.6zM64 456.7h520v-520H64v520z m50-470h420v420H114v-420z m843 538.1V-44H624.1v50H907V504.1l-20.7 20.7H649.8V761.3L629.1 782H297v-287.6h-50V832h402.8L957 524.8z m-120.7 50L699.8 711.3v-136.5h136.5z"  horiz-adv-x="1024" />

    
    <glyph glyph-name="cpu" unicode="&#59019;" d="M955.5 531.5v50h-108.5v137.5h-137.5v105.5h-50v-105.5h-122.5v105.5h-50v-105.5h-122.5v105.5h-50v-105.5h-137.5v-137.5h-108.5v-50h108.5v-122.5h-108.5v-50h108.5v-122.5h-108.5v-50h108.5v-137.5h137.5v-105.5h50v105.5h122.5v-105.5h50v105.5h122.5v-105.5h50v105.5h137.5v137.5h108.5v50h-108.5v122.5h108.5v50h-108.5v122.5h108.5zM797 99h-570v570h570v-570zM672 544h-320v-320h320v320zM622 274h-220v220h220v-220z"  horiz-adv-x="1024" />

    
    <glyph glyph-name="alter" unicode="&#59020;" d="M272 228.5h409.3l-106.1-106.1 35.4-35.3 141.4 141.4v50h-480zM756.3 721.2h50v-50h-50zM448.8 537.9l-35.4 35.4-141.4-141.4v-50h480v50h-409.3zM654.3 721.2h50v-50h-50zM957 627v192h-890v-870h890v678zM907-1h-790v770h790v-770z"  horiz-adv-x="1024" />

    
    <glyph glyph-name="edit" unicode="&#59021;" d="M257.7 119.7l254.9 84.5 435.5 435.5-170.3 170.4-435.5-435.6-84.6-254.8zM777.8 739.4l99.6-99.6-356.4-356.5-99.6 99.6 356.4 356.5zM386 347.6l99.6-99.6-149.1-49.4 49.5 149zM891.9 379.8h50v-421.9h-866v770h367.9v-50h-317.9v-670h766v371.9z"  horiz-adv-x="1024" />

    
    <glyph glyph-name="tag" unicode="&#59022;" d="M167 832v-896l345 210 345-210v896h-690zM807 25l-295 179.5-295-179.5v757h590v-757zM562 609h-100v50h100v-50z"  horiz-adv-x="1024" />

    
    <glyph glyph-name="pie-chart" unicode="&#59023;" d="M512 829h-1.9v-435.3l-434.7-96.2c40.3-204.4 220.4-358.5 436.6-358.5 245.8 0 445 199.2 445 445s-199.2 445-445 445zM791.3 104.7c-36.3-36.3-78.5-64.8-125.6-84.7-48.7-20.6-100.4-31-153.7-31-46.9 0-92.9 8.1-136.5 24.2-42.1 15.5-81.1 38-115.8 66.9-34.5 28.6-63.6 62.6-86.6 100.9-15 25-27.1 51.4-36.2 78.9l423.2 93.7v422.5c36.4-4.4 71.7-13.8 105.6-28.1 47-19.9 89.3-48.4 125.6-84.7 36.3-36.3 64.8-78.5 84.7-125.6 20.6-48.7 31-100.4 31-153.7s-10.4-105.1-31-153.7c-19.9-47.1-48.4-89.3-84.7-125.6zM117.4 365h-50c-0.3 6.3-0.4 12.6-0.4 19 0 224.1 165.6 409.4 381.1 440.4v-50.6c-30.8-5-60.9-13.7-89.8-25.9-47-19.9-89.3-48.4-125.6-84.7-36.3-36.3-64.8-78.5-84.7-125.6-20.6-48.7-31-100.4-31-153.7 0-6.3 0.2-12.6 0.4-18.9z"  horiz-adv-x="1024" />

    
    <glyph glyph-name="strategy" unicode="&#59024;" d="M96.2 426.1h50v-50h-50v50zM263.9 684.5l-35.4 35.4-35.4-35.4 35.4-35.4 35.4 35.4zM537 826.9h-50v-50h50v50zM877.8 426.1v-50h50v50h-50zM827 409.9c0-135.4-118.3-225.5-185-339.8v-128.9h-260v128.9c-69 112-185 203.2-185 339.8 0 180.2 138.3 326.2 315 326.2s315-146.1 315-326.2zM592 47.5h-160v-56.3h160v56.3zM756.3 518.1c-13.3 33-32.3 62.5-56.6 87.8-49.6 51.7-116.3 80.2-187.7 80.2s-138.1-28.5-187.7-80.2c-24.2-25.3-43.3-54.8-56.6-87.8-13.7-34.1-20.7-70.6-20.7-108.2 0-35.1 9.5-69 30-106.6 19.7-36.2 46.7-70.7 75.3-107.2 24.5-31.3 49.9-63.7 71.5-98.6h63.2v196.6h-55v50h160v-50h-55v-196.7h63.2c22.4 37.9 49.3 72.6 75.3 106.1 27.6 35.6 53.7 69.2 72.7 104.1 19.6 36.1 28.8 68.6 28.8 102.2 0 37.7-7 74.2-20.7 108.3zM760.1 684.5l35.4-35.4 35.4 35.4-35.4 35.4-35.4-35.4z"  horiz-adv-x="1024" />

    
    <glyph glyph-name="policy" unicode="&#59025;" d="M806.3 671.2h-50v50h50v-50zM704.3 721.2h-50v-50h50v50zM957 627v-678h-890v870h890v-192zM907 769h-790v-770h790v770zM314.3 147.5l38.3 32.1-133.8 159.5 133.7 159.3-38.3 32.1-160.8-191.5 0.5-0.4 160.4-191.1zM805.2 339.1l-133.8-159.5 38.3-32.1 160.4 191.1 0.5 0.4-160.7 191.5-38.3-32.1 133.6-159.3zM644.5 566.1l-45.3 21.1-219.7-471.3 45.3-21.1 219.7 471.3z"  horiz-adv-x="1024" />

    
    <glyph glyph-name="error" unicode="&#59026;" d="M846.5 683.1l-299.1-299.1 299.1-299.1-35.4-35.4-299.1 299.1-299.1-299.1-35.4 35.4 299.1 299.1-299.1 299.1 35.4 35.4 299.1-299.1 299.1 299.1 35.4-35.4z"  horiz-adv-x="1024" />

    
    <glyph glyph-name="error-bold" unicode="&#59027;" d="M625.1 384l258.1-258.1-113.1-113.1-258.1 258.1-258.1-258.1-113.1 113.1 258.1 258.1-258.1 258.1 113.1 113.1 258.1-258.1 258.1 258.1 113.1-113.1-258.1-258.1z"  horiz-adv-x="1024" />

    
    <glyph glyph-name="send" unicode="&#59028;" d="M88.1 822h98.6v-50h-48.6v-776h48.6v-50h-98.6v876zM466.5 121.4l35.4-35.4 198 198-198 198-35.4-35.4 137.6-137.6h-416.3v-50h416.3l-137.6-137.6zM935.9 514.8v-568.8h-710v255.4h50v-205.4h610v498.1l-20.7 20.7h-236.5v236.5l-20.7 20.7h-332.1v-405.3h-50v455.3h402.8l307.2-307.2zM815.2 564.8l-136.5 136.5v-136.5h136.5z"  horiz-adv-x="1024" />

    
    <glyph glyph-name="bug" unicode="&#59029;" d="M512.9 786c-92 0-167.8-64.7-232.5-142.9h465c-64.8 78.2-140.6 142.9-232.5 142.9zM401.3 693.1c38.4 29 74.9 42.9 111.5 42.9s73.2-13.9 111.5-42.9h-223zM958 330.5v50h-87.8c-6.9 62.4-29.2 127.6-62.7 186.6l81.7 81.7-35.4 35.4-73.7-73.7c-2.1 3-4.2 6-6.4 8.9h-521.8c-2.4-3.3-4.8-6.6-7.1-9.9l-74.8 74.8-35.4-35.4 82.8-82.8c-33.1-58.8-55.2-123.6-62.1-185.5h-89.3v-50h87.4c1.5-69.8 19.1-135.5 52.4-190.7l-86-86 35.4-35.4 80.1 80.1c60-71.1 152.8-116.6 277.6-116.6 126.2 0 218.4 44.7 277.8 114.7l78.2-78.2 35.4 35.4-84.1 84.1c33.4 55.6 50.7 122 52.2 192.6h85.6zM280.7 122.6c-25 27.2-44.4 59.9-57.6 97.1s-19.9 77.9-19.9 120.9c0 72.9 27.7 156.9 74.8 228.8h209.8v-536.7c-41.1 2.3-78.9 10.5-112.5 24.3-36.7 15.3-68.6 37.3-94.6 65.6zM803.2 219.3c-12.9-37.3-31.9-69.9-56.5-96.9-25.7-28.2-57.4-50.2-94.2-65.3-34-13.9-72.4-22.1-114.6-24.4v536.7h209.8c47.2-71.9 74.8-155.9 74.8-228.8 0-43.4-6.5-84.2-19.3-121.3z"  horiz-adv-x="1024" />

    
    <glyph glyph-name="disk" unicode="&#59030;" d="M615.7 814h-548.7v-860h890v573.6l-341.3 286.4zM298.6 764h298.9l2.1-1.7v-214.9h-301v216.6zM724 4h-425.4v249.4h425.4v-249.4zM907 4h-133v299.4h-525.4v-299.4h-131.6v760h131.6v-266.6h401v223l257.5-216v-500.4zM353.1 703.9h50v-80h-50v80z"  horiz-adv-x="1024" />

    
    <glyph glyph-name="like" unicode="&#59031;" d="M897.6 487.7c-14.4 33.3-63.9 41.5-116.6 41.5-51.9 0-106.9-8-134.4-8-55.5 0 69.5 302-131.5 302-100 0-67-145.5-83.5-277.5-8.4-67-72.6-104.8-133.7-125.7v44.3h-200v-499.5h200v43.2c13.7 1.1 27.7 1.7 41.5 1.7 11.6 0 22.9-0.5 33.8-1.5 53.4-5.2 179-28.7 293.8-28.7 72.1 0 139.9 9.3 182.7 38.2 110.9 75 76.4 404 47.9 470zM247.9 14.8h-100v399.5h100v-399.5zM875.9 256.9c-0.9-50.5-6.4-95.4-16.1-129.9-9.6-34-22.8-57.5-38.2-67.9-20-13.5-63.1-29.7-154.7-29.7-80 0-166.1 12-228.9 20.8-23.8 3.3-44.4 6.2-60 7.7-11.9 1.2-24.9 1.8-38.6 1.8-13.8 0-27.8-0.6-41.5-1.6v309.4c6.4 1.9 12.8 4 19.3 6.3 123.9 43.4 157.6 114.1 164 165.7 4.7 37.8 5.7 76.6 6.5 110.8 1 42.5 2 82.6 9.7 107.1 3.2 10 6.2 13.1 7 13.8 1.5 1.3 5.5 2 10.6 2 34.4 0 45.5-11.8 49.1-15.7 10.4-11.1 17-30.5 19.7-57.8 3-29.6 0.8-63-1.1-92.4-3.4-52.6-5.8-90.6 18.6-116.6 11.7-12.5 27.8-19.4 45.1-19.4 13.8 0 31.2 1.5 51.5 3.3 25.8 2.2 55.1 4.8 83 4.8 55.1 0 69-10.3 70.9-11.9 9.8-23.4 25.8-112.2 24.1-210.6z"  horiz-adv-x="1024" />

    
    <glyph glyph-name="tv" unicode="&#59032;" d="M656.1 594.5l200 200-35.4 35.4-235.3-235.4h-146.8l-235.4 235.3-35.4-35.4 200-200h-305.6v-656.3h899.6v656.4h-305.7zM112.2-11.8v556.3h799.6v-327.6h-61.3v-50h61.3v-51.9h-61.3v-50h61.3v-76.9h-799.6z"  horiz-adv-x="1024" />

    
    <glyph glyph-name="order-response" unicode="&#59033;" d="M167 709.9h165v-61.8h360v61.8h165V468h50V759.9H692V828.1H332v-68.2H117v-820h398.9v50H167v720z m215 68.2h260v-80H382v80z m-95-407.9h320v-50H287v50z m450 100.7H287v50h450v-50z m26.6-106.3l-210-420h420l-210 420z m0-111.8l129.1-258.2H634.5l129.1 258.2z"  horiz-adv-x="1024" />

    
    <glyph glyph-name="phone" unicode="&#59034;" d="M187 832v-896h650v896h-650zM787 782v-601h-550v601h550zM237-14v145h550v-145h-550zM532.2 702.4h-120v50h120v-50zM611.8 702.4h-50v50h50v-50zM487 83.4h50v-50h-50v50z"  horiz-adv-x="1024" />

    
    <glyph glyph-name="approve" unicode="&#59035;" d="M839.6 710c-23.5 0-56 1.9-100.8 7.6-132.5 16.9-226.8 114.1-226.8 114.1s-94.3-97.2-226.8-114c-44.8-5.7-77.3-7.6-100.8-7.6-46 0-57.1 7.2-57.1 7.2l1.2-462.5s38.3-154.4 179.3-234.6c141-80.1 204.3-83.9 204.3-83.9s63.3 3.8 204.3 83.9c141 80.1 179.3 234.6 179.3 234.6l1.2 462.5c-0.2 0-11.3-7.3-57.3-7.3zM845.6 261.8c-3.3-10.8-12.5-37.7-30.4-69.8-13.9-24.9-30.2-47.7-48.4-67.6-22.3-24.6-47.6-45-75.2-60.6-65.3-37.1-111.7-56.2-139.2-65.7-20.9-7.2-34.2-10.1-40.4-11.2-6.2 1.1-19.5 4-40.4 11.2-27.5 9.5-73.9 28.6-139.2 65.7-27.1 15.4-51.9 35.3-74 59.3-18 19.6-34.2 41.9-48.1 66.4-18.8 33-28.5 61.3-31.9 72.5l-1 398.2c2.3 0 4.6-0.1 7-0.1 29.4 0 65.5 2.7 107.1 8 98.5 12.5 177.4 63.3 220.5 97.3 43.1-34 122-84.8 220.5-97.3 41.6-5.3 77.7-8 107.1-8 2.4 0 4.7 0 7 0.1l-1-398.4zM710.6 550.1l35.4-35.4-297-297-169.7 169.7 35.4 35.4 134.3-134.4 261.6 261.7z"  horiz-adv-x="1024" />

    
    <glyph glyph-name="dialog" unicode="&#59036;" d="M723 294.5v510H67v-510h99.9l74.2-144.2 184.2 144.2H723z m-328.5 39.4L257.9 227l-46.5 90.4-14 27.1H117v410h556v-410H408.1l-13.6-10.6zM957 717.7v-610h-99.9l-74.2-144.2-184.2 144.2H299.6l70 50H615.9l13.6-10.6 136.6-106.9 46.5 90.4 14 27.1H907v510H772.1v50H957z"  horiz-adv-x="1024" />

    
    <glyph glyph-name="import" unicode="&#59037;" d="M487 222.8v574.1h50v-574.1l208.3 208.3 35.4-35.4-268.7-268.6-268.7 268.7 35.4 35.4 208.3-208.4zM832.1 651.1v-50h74.9v-580h-790v580h74.9v50h-124.9v-680h890v680h-124.9z"  horiz-adv-x="1024" />

    
    <glyph glyph-name="export" unicode="&#59038;" d="M278.7 492.8l-35.4 35.4 268.7 268.7 268.7-268.7-35.4-35.4-208.3 208.4v-574.1h-50v574.1l-208.3-208.4zM832.1 651.1v-50h74.9v-580h-790v580h74.9v50h-124.9v-680h890v680h-124.9z"  horiz-adv-x="1024" />

    
    <glyph glyph-name="order" unicode="&#59039;" d="M692 759.9v68.2h-360v-68.2h-215v-820h790v820h-215zM382 778.1h260v-80h-260v80zM857-10.1h-690v720h165v-61.8h360v61.8h165v-720zM287 520.9h450v-50h-450v50zM287 370.2h450v-50h-450v50zM623 219.4h114v-50h-114v50z"  horiz-adv-x="1024" />

    
    <glyph glyph-name="correct" unicode="&#59040;" d="M890.3 677.4l-516.2-516.1-240.4 240.4-35.4-35.4 275.8-275.7 551.6 551.5z"  horiz-adv-x="1024" />

    
    <glyph glyph-name="correct-bold" unicode="&#59041;" d="M833.7 716.3l113.1-113.1-551.5-551.5-318.2 318.2 113.2 113.1 205.1-205.1 438.3 438.4z"  horiz-adv-x="1024" />

    
    <glyph glyph-name="publish" unicode="&#59042;" d="M752.3 724.9v98.2h-50v-98.2h-380.6v98.2h-50v-98.2h-207.7v-780h896v780h-207.7zM910-5.1h-373v342.6l173-173 35.4 35.4-233.4 233.3-233.3-233.3 35.4-35.4 173 173v-342.6h-373.1v485.2h796v-485.2zM910 530.1h-796v144.8h157.7v-51.8h50v51.8h380.5v-51.8h50v51.8h157.8v-144.8z"  horiz-adv-x="1024" />

    
    <glyph glyph-name="home" unicode="&#59043;" d="M992.7 332.9l-480.8 480.8-480.6-481 35.4-35.4 125.3 125.4v-468.4h640v468.6l125.4-125.4 35.3 35.4zM413 4.3v260h200v-260h-200zM782 4.3h-119v310h-300v-310h-121v468.4l270.1 270.1 269.9-269.9v-468.6zM670.1 706.3l-50 50h194.9v-196.1l-50 50v96.1h-94.9z"  horiz-adv-x="1024" />

    
    <glyph glyph-name="magnifier" unicode="&#59044;" d="M750.3 697.3c-152.3 152.3-399.2 152.3-551.6 0s-152.3-399.2 0-551.5c146.4-146.4 380.1-152.1 533.3-17.1l172.1-172.1 35.4 35.4-172.1 171.9c135 153.2 129.3 387-17.1 533.4zM789.6 293.5c-17.1-42.1-42.2-80-74.7-112.4-32.5-32.5-70.3-57.6-112.4-74.7-40.7-16.5-83.8-24.9-128-24.9s-87.2 8.4-128 24.9c-42.1 17.1-80 42.2-112.4 74.7s-57.6 70.3-74.7 112.4c-16.5 40.7-24.9 83.8-24.9 128s8.4 87.2 24.9 128c17.1 42.1 42.2 80 74.7 112.4s70.3 57.6 112.4 74.7c40.7 16.5 83.8 24.9 128 24.9s87.2-8.4 128-24.9c42.1-17.1 80-42.2 112.4-74.7 32.5-32.5 57.6-70.3 74.7-112.4 16.5-40.7 24.9-83.8 24.9-128s-8.4-87.3-24.9-128z"  horiz-adv-x="1024" />

    
    <glyph glyph-name="server" unicode="&#59045;" d="M137 832v-896h750v896h-750zM837-14h-650v796h650v-796zM722 685.3h-420v-240h420v240zM672 495.3h-320v140h320v-140zM722 311.6h-420v50h420v-50zM722 189.8h-420v50h420v-50z"  horiz-adv-x="1024" />

    
    <glyph glyph-name="alarm" unicode="&#59046;" d="M841 84v344c0 165-135 300-300 300h-56c-165 0-300-135-300-300v-344h-103v-50h860v50h-101zM235 84v344c0 33.6 6.6 66.2 19.7 96.9 12.6 29.8 30.7 56.5 53.8 79.6 23 23 49.8 41.1 79.6 53.8 30.8 13.1 63.4 19.7 96.9 19.7h56c33.6 0 66.2-6.6 96.9-19.7 29.8-12.6 56.5-30.7 79.6-53.8s41.1-49.8 53.8-79.6c13.1-30.8 19.7-63.4 19.7-96.9v-344h-556zM412 8h200v-50h-200v50zM474.1 747.8c-23.9-0.9-47-4.5-69.2-10.7 16.8 42.7 58.4 72.9 107.1 72.9 48.4 0 89.9-29.9 106.8-72.3-22.1 6-45.3 9.5-69.1 10.2-10.7 7.6-23.7 12.1-37.8 12.1-14 0-27.1-4.5-37.8-12.2z"  horiz-adv-x="1024" />

    
    <glyph glyph-name="tool" unicode="&#59047;" d="M265.010 65.493l-38.3 32.14 32.14 38.3 38.3-32.14zM848.1 737.2l-146.9-175.1-61.3 51.4 146.9 175.1c-129.3 82.9-303.1 58.8-404.4-62-85.1-101.5-94.2-241.5-33.1-350.6l-255.2-304 168.5-141.4 255.2 304.1c118.1-41.1 254.4-8 339.5 93.5 101.4 120.7 94.9 296.1-9.2 409zM687.1 276.3c-25-6.6-50.7-9.6-76.6-8.6-26.1 0.9-51.7 5.7-76.2 14.3l-32.6 11.4-22.2-26.4-223-266-91.9 77.1 245.2 292.2-16.8 30.1c-12.7 22.7-21.8 47.1-27.3 72.6-5.4 25.3-7 51.2-4.8 76.9 4.6 53.4 25.3 103.4 59.9 144.6 20.8 24.8 45.6 45.2 73.6 60.6 27.1 14.9 56.4 24.8 87.2 29.4 42.9 6.4 86.2 2 126.3-12.4l-138.4-164.7 137.9-115.6 32.1 38.3 106.2 126.5c21.1-36.9 33-78.9 34.1-122.2 0.8-31.1-3.8-61.7-13.8-91-10.3-30.3-26.1-58.2-46.9-83-34.6-41.3-80.3-70.4-132-84.1z"  horiz-adv-x="1024" />

    
    <glyph glyph-name="shut-down" unicode="&#59048;" d="M537 270.8h-50v560h50v-560zM672 780.5v-54.5c40.4-18.8 76.9-44.3 108.7-76.1 34.9-34.9 62.3-75.6 81.5-120.8 19.8-46.8 29.8-96.6 29.8-147.9s-10-101.1-29.8-147.9c-19.1-45.2-46.5-85.9-81.5-120.8-34.9-34.9-75.6-62.3-120.8-81.5-46.8-19.8-96.6-29.8-147.9-29.8-51.3 0-101.1 10-147.9 29.8-45.2 19.1-85.9 46.5-120.8 81.5-34.9 34.9-62.3 75.6-81.5 120.8-19.8 46.8-29.8 96.6-29.8 147.9s10 101.1 29.8 147.9c19.1 45.2 46.5 85.9 81.5 120.8 31.8 31.8 68.3 57.3 108.7 76.1v54.5c-158.2-63.5-270-218.3-270-399.3 0-237.5 192.5-430 430-430s430 192.5 430 430c0 181-111.8 335.8-270 399.3z"  horiz-adv-x="1024" />

    
    <glyph glyph-name="merge" unicode="&#59049;" d="M302.8 359h-229.3v50h229.2l-137.6 137.6 35.4 35.4 198-198-198-198-35.4 35.4 137.7 137.6zM160.6 744h266.8v-720h-266.8v-50h316.8v820h-316.8v-50zM721.2 409l137.6 137.6-35.3 35.4-198-198 198-198 35.4 35.4-137.7 137.6h229.2v50h-229.2zM596.5 744h266.8v50h-316.8v-820h316.8v50h-266.8v720z"  horiz-adv-x="1024" />

    
    <glyph glyph-name="institute" unicode="&#59050;" d="M674.3 774v-240h-320v240h320M907.4 204v-210h-290v210h290M406.6 204v-210h-290v210h290M724.3 824h-420v-340h185v-90.4h-252.7v-139.6h-170v-310h390v310h-170v89.7h450.7v-89.7h-170v-310h390v310h-170v139.6h-248v90.4h185v340z"  horiz-adv-x="1024" />

    
    <glyph glyph-name="staff" unicode="&#59051;" d="M522 404.3c110.5 0 200.1 89.6 200.1 200.1s-89.6 200.2-200.1 200.2-200.1-89.6-200.1-200.1 89.6-200.2 200.1-200.2zM415.8 710.6c28.4 28.4 66.1 44 106.2 44s77.8-15.6 106.2-44c28.4-28.4 44-66.1 44-106.2 0-40.1-15.6-77.8-44-106.2-28.4-28.4-66.1-44-106.2-44-40.1 0-77.8 15.6-106.2 44s-44 66.1-44 106.2c0.1 40.1 15.7 77.8 44 106.2zM590 142h180v-50h-180v50zM512 403.7c-226.4 0-410-192.5-410-430 0-3.4 0-6.9 0.1-10.3h50c-0.1 3.4-0.1 6.8-0.1 10.3 0 51.6 9.6 101.6 28.6 148.7 18.3 45.3 44.4 86 77.7 120.9 15.4 16.2 32 30.7 49.6 43.5 60.9-29.1 130.4-45.5 204.1-45.5s143.1 16.5 204.1 45.5c17.6-12.8 34.2-27.4 49.6-43.5 33.3-34.9 59.4-75.6 77.7-120.9 19-47 28.6-97.1 28.6-148.7 0-3.4 0-6.9-0.1-10.3h50c0.1 3.4 0.1 6.8 0.1 10.3 0 237.5-183.6 430-410 430zM308.4 287.1c1.9 1.3 3.7 2.7 5.6 4-1.8-1.3-3.7-2.6-5.6-4zM315 291.8l5.4 3.6c-1.8-1.1-3.6-2.3-5.4-3.6zM321.8 296.4c1.7 1.1 3.4 2.2 5 3.3-1.6-1.1-3.3-2.2-5-3.3zM328.7 300.8c1.6 1 3.1 2 4.7 2.9-1.6-0.9-3.1-1.9-4.7-2.9zM335.8 305.1c1.4 0.8 2.8 1.7 4.3 2.5-1.5-0.8-2.9-1.6-4.3-2.5zM343.1 309.3c1.2 0.7 2.5 1.4 3.7 2.1-1.2-0.7-2.5-1.4-3.7-2.1zM350.8 313.5c1 0.5 1.9 1 2.9 1.5-1-0.4-1.9-1-2.9-1.5zM512 291.2c-52.5 0-103.4 9.2-151.3 27.3 4 1.9 8 3.8 12 5.6 44.1 19.6 91 29.5 139.3 29.5s95.2-9.9 139.3-29.5c4-1.8 8-3.7 12-5.6-47.9-18.1-98.8-27.3-151.3-27.3zM710 291.1c1.9-1.3 3.7-2.6 5.6-4-1.9 1.4-3.8 2.7-5.6 4zM670.3 315.1c1-0.5 1.9-1 2.9-1.5-1 0.4-1.9 1-2.9 1.5zM677.2 311.4c1.3-0.7 2.5-1.4 3.7-2.1-1.2 0.7-2.5 1.4-3.7 2.1zM683.9 307.6c1.4-0.8 2.9-1.7 4.3-2.5-1.4 0.9-2.8 1.7-4.3 2.5zM690.6 303.7c1.6-1 3.1-1.9 4.7-2.9-1.6 1-3.1 2-4.7 2.9zM697.1 299.7c1.7-1.1 3.4-2.2 5-3.3-1.6 1.1-3.3 2.2-5 3.3zM703.6 295.5v0z"  horiz-adv-x="1024" />

    
    <glyph glyph-name="user" unicode="&#59052;" d="M522 404.3c110.5 0 200.1 89.6 200.1 200.1s-89.6 200.2-200.1 200.2-200.1-89.6-200.1-200.1 89.6-200.2 200.1-200.2zM415.8 710.6c28.4 28.4 66.1 44 106.2 44s77.8-15.6 106.2-44c28.4-28.4 44-66.1 44-106.2 0-40.1-15.6-77.8-44-106.2-28.4-28.4-66.1-44-106.2-44-40.1 0-77.8 15.6-106.2 44s-44 66.1-44 106.2c0.1 40.1 15.7 77.8 44 106.2zM922-26.3c0-3.4 0-6.9-0.1-10.3h-50c0.1 3.4 0.1 6.8 0.1 10.3 0 51.6-9.6 101.6-28.6 148.7-18.3 45.3-44.4 86-77.7 120.9-33.1 34.7-71.6 62-114.4 81-44.1 19.6-91 29.5-139.3 29.5s-95.2-9.9-139.3-29.5c-42.8-19-81.3-46.2-114.4-81-33.3-34.9-59.4-75.6-77.7-120.9-19-47-28.6-97.1-28.6-148.7 0-3.4 0-6.9 0.1-10.3h-50c-0.1 3.4-0.1 6.8-0.1 10.3 0 237.5 183.6 430 410 430s410-192.5 410-430z"  horiz-adv-x="1024" />

    
    <glyph glyph-name="asset" unicode="&#59053;" d="M946.7 701.1c-8.7 72.2-200 129.9-434.7 129.9s-426-57.7-434.7-129.9h-0.3v-633.5h0.2c7.5-72.5 199.3-130.6 434.8-130.6s427.3 58.1 434.8 130.6h0.2v633.5h-0.3zM235 748.4c75.6 21.1 174 32.6 277 32.6s201.3-11.6 277-32.6c34.2-9.5 62.9-20.8 83-32.7 15.9-9.4 22-16.5 24.2-19.6-2.2-3.1-8.4-10.2-24.2-19.6-20.1-11.9-48.8-23.2-83-32.7-75.7-21.2-174-32.8-277-32.8-92 0-187.2 13.9-267.9 39-33.5 10.5-63.4 22.6-86.4 35-12.2 6.6-20.3 12.1-25.4 16.1 0.3 0.3 0.7 0.7 1.1 1l0.2 0.2c0.4 0.3 0.8 0.7 1.2 1.1l0.2 0.2c0.4 0.3 0.8 0.7 1.2 1 0.1 0.1 0.2 0.1 0.2 0.2 0.5 0.4 0.9 0.8 1.5 1.2l0.3 0.3c0.5 0.4 1.1 0.8 1.6 1.3 0.6 0.4 1.2 0.9 1.8 1.3 0.1 0.1 0.3 0.2 0.4 0.3 0.6 0.4 1.3 0.9 1.9 1.4 0.1 0.1 0.2 0.2 0.3 0.2 0.6 0.4 1.3 0.9 1.9 1.3 0.1 0.1 0.2 0.2 0.4 0.2 0.7 0.5 1.5 1 2.3 1.5 0.2 0.1 0.4 0.2 0.5 0.3 0.8 0.5 1.7 1 2.6 1.5 20.3 11.9 49 23.3 83.1 32.8zM872 52.4c-20.1-11.9-48.8-23.2-83-32.7-75.7-21.1-174-32.7-277-32.7s-201.3 11.6-276.9 32.6c-34.2 9.5-62.9 20.8-83 32.7-18.7 11.1-24 19-25 20.9v571.7c0.8-0.5 1.6-0.9 2.5-1.4 2.2-1.2 4.5-2.5 6.9-3.7 0.8-0.4 1.5-0.8 2.3-1.2 2.2-1.2 4.5-2.3 6.8-3.5 0.9-0.5 1.9-0.9 2.9-1.4 4.5-2.2 9.2-4.4 14.1-6.5 3.4-1.5 7-3 10.6-4.5 5.5-2.3 11.1-4.5 17-6.8 2.3-0.9 4.7-1.8 7.1-2.7s4.8-1.8 7.3-2.6c3.7-1.3 7.4-2.6 11.3-3.9 1.3-0.4 2.6-0.8 3.8-1.3 2.3-0.7 4.6-1.5 6.9-2.2 1.6-0.5 3.3-1 4.9-1.5 1.3-0.4 2.7-0.8 4-1.2l8.1-2.4c1.4-0.4 2.7-0.8 4.1-1.2 2.8-0.8 5.6-1.6 8.4-2.3 1.7-0.5 3.4-0.9 5.1-1.4 4-1.1 8-2.1 12.1-3.1 2.9-0.7 5.9-1.5 8.8-2.2 2.6-0.6 5.3-1.3 7.9-1.9 0.7-0.2 1.4-0.3 2.1-0.5l8.1-1.8c3.1-0.7 6.1-1.3 9.2-2 1.6-0.3 3.1-0.6 4.7-1 4.7-1 9.4-1.9 14.2-2.8l4.8-0.9c4.8-0.9 9.7-1.7 14.6-2.5 1.6-0.3 3.3-0.5 4.9-0.8 4.9-0.8 9.9-1.6 14.9-2.3 1.7-0.2 3.4-0.5 5-0.7 3.1-0.4 6.3-0.9 9.5-1.3 1.9-0.3 3.9-0.5 5.8-0.7 3.2-0.4 6.5-0.8 9.8-1.2 7.1-0.8 14.3-1.6 21.5-2.2 14.1-1.3 28.4-2.3 43-3.1 3.6-0.2 7.3-0.3 11-0.5 3.7-0.1 7.4-0.3 11-0.4s7.4-0.2 11.1-0.2c5.6-0.1 11.2-0.1 16.8-0.1 167.1 0 312.1 29.2 385 72.1v-559.8c-1.1-1.9-6.3-9.8-25-20.9zM549.8 365.6h102.2v-50h-115v-65.9h115v-50h-115v-131h-50v131h-115v50h115v65.9h-115v50h102.2l-92 92 35.4 35.4 94.4-94.4 94.4 94.4 35.4-35.4-92-92z"  horiz-adv-x="1024" />

    
    <glyph glyph-name="aid" unicode="&#59054;" d="M742 584.9v208.2h-460v-208.1h-218v-610h896v610h-218zM332 743.1h360v-158.1h-360v158.1zM910 24.9h-796v510h796v-510zM487 249.9h-145v50h145v145h50v-145h145v-50h-145v-145h-50v145z"  horiz-adv-x="1024" />

    
    <glyph glyph-name="deblock" unicode="&#59055;" d="M537 99.9h-50v200h50v-200zM932 449.9v-500h-840v500h110v168.2c0 110 90 200 200 200h220c110 0 200-90 200-200v-6.7l-50-4.6v11.3c0 39.8-15.7 77.5-44.1 105.9-28.4 28.4-66 44.1-105.9 44.1h-220c-39.8 0-77.5-15.7-105.9-44.1-28.4-28.4-44.1-66-44.1-105.9v-168.1h680zM142 399.9v-400h740v400h-740z"  horiz-adv-x="1024" />

    
    <glyph glyph-name="lock" unicode="&#59056;" d="M822 449.9v168.2c0 110-90 200-200 200h-220c-110 0-200-90-200-200v-168.1h-110v-500h840v500h-110zM252 618.1c0 39.8 15.7 77.5 44.1 105.9 28.4 28.4 66 44.1 105.9 44.1h220c39.8 0 77.5-15.7 105.9-44.1 28.4-28.4 44.1-66 44.1-105.9v-168.1h-520v168.1zM882-0.1h-740v400h740v-400zM612 174.9h-200v50h200v-50z"  horiz-adv-x="1024" />

    
    <glyph glyph-name="ban" unicode="&#59057;" d="M512 829c-245.8 0-445-199.2-445-445s199.2-445 445-445 445 199.2 445 445-199.2 445-445 445zM512-11c-53.3 0-105.1 10.4-153.7 31-47 19.9-89.3 48.4-125.6 84.7-36.3 36.3-64.8 78.5-84.7 125.6-20.6 48.7-31 100.4-31 153.7s10.4 105.1 31 153.7c16.6 39.4 39.3 75.4 67.6 107.3l557.5-557.5c-32-28.2-68-50.9-107.3-67.6-48.7-20.5-100.5-30.9-153.8-30.9zM808.4 122.9l-557.5 557.5c32 28.2 68 50.9 107.3 67.6 48.7 20.6 100.4 31 153.7 31s105.1-10.4 153.7-31c47-19.9 89.3-48.4 125.6-84.7 36.3-36.3 64.8-78.5 84.7-125.6 20.6-48.7 31-100.4 31-153.7s-10.4-105.1-31-153.7c-16.6-39.4-39.3-75.4-67.5-107.4z"  horiz-adv-x="1024" />

    
    <glyph glyph-name="serve" unicode="&#59058;" d="M866 471.2v141.6c0 110-90 200-200 200h-308c-110 0-200-90-200-200v-141.6h-69.5v-330h29.5v-141h344.5v-45h220v140h-220v-45h-294.5v141h-29.5v230h100v-230h-20.5v-50h70.5v330h-80.5v141.6c0 39.8 15.7 77.5 44.1 105.9 28.4 28.4 66 44.1 105.9 44.1h308c39.8 0 77.5-15.7 105.9-44.1 28.4-28.4 44.1-66 44.1-105.9v-141.6h-80.5v-330h200v330h-69.5zM632.5 5.2h-113.7v40h113.7v-40zM885.5 191.2h-100v230h100v-230z"  horiz-adv-x="1024" />

    
    <glyph glyph-name="lound-speaker" unicode="&#59059;" d="M839.6 553.9v243.5l-704-162.8v-97.1h-43.3v-260h43.3v-100.1l174-34.5v-122.3h-60v134.2l-50 9.9v-194.2h160v162.5l480-95.3v251.6c53.8 19.9 92.1 71.6 92.1 132.3s-38.3 112.4-92.1 132.3zM789.6 98.6l-604 119.9v376.4l604 139.7v-636zM839.6 344.8v153.5c25.3-16.2 42.1-44.5 42.1-76.7s-16.8-60.6-42.1-76.8z"  horiz-adv-x="1024" />

    
    <glyph glyph-name="link" unicode="&#59060;" d="M912.9 492.1l-163.3-163.3-35.4 35.4 163.3 163.3c9.4 9.4 14.5 21.9 14.5 35.4 0 13.4-5.2 26-14.5 35.4l-151.3 151.2c-9.4 9.4-21.9 14.5-35.4 14.5-13.4 0-26-5.2-35.4-14.5l-246-246.1c-9.4-9.4-14.5-21.9-14.5-35.4 0-13.4 5.2-26 14.5-35.4l51.7-51.7-35.4-35.4-51.7 51.7c-38.9 38.9-38.9 102.5 0 141.4l246.1 246.1c38.9 38.9 102.5 38.9 141.4 0l151.3-151.3c39-38.7 39-102.4 0.1-141.3zM649.9 370.6l-91.5 91.5-35.4-35.4 91.5-91.5c9.4-9.4 14.5-21.9 14.5-35.4 0-13.4-5.2-26-14.5-35.4l-246-245.9c-9.4-9.4-21.9-14.5-35.4-14.5-13.4 0-26 5.2-35.4 14.5l-151.2 151.3c-9.4 9.4-14.5 21.9-14.5 35.4 0 13.4 5.2 26 14.5 35.4l157.5 157.4-35.4 35.4-157.5-157.5c-38.9-38.9-38.9-102.5 0-141.4l151.3-151.3c38.9-38.9 102.5-38.9 141.4 0l246.1 246.1c38.9 38.8 38.9 102.4 0 141.3z"  horiz-adv-x="1024" />

    
    <glyph glyph-name="memory" unicode="&#59061;" d="M759 585h-500v-200h500v200zM709 435h-400v100h400v-100zM954 602.5c2 0 4-0.1 6-0.4v161.9h-896v-161.8c2 0.2 4 0.4 6 0.4 27.6 0 50-22.4 50-50s-22.4-50-50-50c-2 0-4 0.1-6 0.4v-499h245v164.7h50v-164.7h601v498.9c-2-0.2-4-0.4-6-0.4-27.6 0-50 22.4-50 50s22.4 50 50 50zM910 642.3c-33.1-16.3-56-50.4-56-89.8s22.9-73.5 56-89.8v-408.7h-165v164.7h-50v-164.7h-62v164.7h-50v-164.7h-62v164.7h-50v-164.7h-62v164.7h-150v-164.7h-145v408.7c33.1 16.3 56 50.4 56 89.8s-22.9 73.5-56 89.8v71.7h796v-71.7z"  horiz-adv-x="1024" />

    
    <glyph glyph-name="start" unicode="&#59062;" d="M512 829c-245.8 0-445-199.2-445-445s199.2-445 445-445 445 199.2 445 445-199.2 445-445 445zM791.3 104.7c-36.3-36.3-78.5-64.8-125.6-84.7-48.7-20.6-100.4-31-153.7-31s-105.1 10.4-153.7 31c-47 19.9-89.3 48.4-125.6 84.7-36.3 36.3-64.8 78.5-84.7 125.6-20.6 48.7-31 100.4-31 153.7s10.4 105.1 31 153.7c19.9 47 48.4 89.3 84.7 125.6 36.3 36.3 78.5 64.8 125.6 84.7 48.7 20.6 100.4 31 153.7 31s105.1-10.4 153.7-31c47-19.9 89.3-48.4 125.6-84.7 36.3-36.3 64.8-78.5 84.7-125.6 20.6-48.7 31-100.4 31-153.7s-10.4-105.1-31-153.7c-19.9-47.1-48.4-89.3-84.7-125.6zM446.5 610.3l226.3-226.3-226.3-226.3-35.4 35.4 191 190.9-190.9 190.9 35.3 35.4z"  horiz-adv-x="1024" />

    
    <glyph glyph-name="migrate" unicode="&#59063;" d="M493.5 679l-135.5 130h-294v-850h896v720h-466.5zM910 9h-796v750h223.9l135.5-130h436.6v-620zM675.2 344l-151.8 151.8 35.4 35.4 212.1-212.2-212.2-212.1-35.4 35.4 151.9 151.7h-422v50h422z"  horiz-adv-x="1024" />

    
    <glyph glyph-name="pencil" unicode="&#59064;" d="M688 831.6l-589.7-589.7-33.9-305.5 305.5 33.9 589.7 589.7-271.6 271.6zM888.9 560l-40.1-40.1-200.9 200.8 40.1 40.1 200.9-200.8zM343.1 66.6l444.1 444.1 26.2-26.2-444.1-444-26.2 26.1zM168.5 241.3l444.1 444.1 139.3-139.3-444.1-444.1-139.3 139.3zM143.5 195.6l180.1-180.1-202.6-22.5 22.5 202.6z"  horiz-adv-x="1024" />

    
    <glyph glyph-name="cancel" unicode="&#59065;" d="M512 829c-245.8 0-445-199.2-445-445s199.2-445 445-445 445 199.2 445 445-199.2 445-445 445zM791.3 104.7c-36.3-36.3-78.5-64.8-125.6-84.7-48.7-20.6-100.4-31-153.7-31s-105.1 10.4-153.7 31c-47 19.9-89.3 48.4-125.6 84.7-36.3 36.3-64.8 78.5-84.7 125.6-20.6 48.7-31 100.4-31 153.7s10.4 105.1 31 153.7c19.9 47 48.4 89.3 84.7 125.6 36.3 36.3 78.5 64.8 125.6 84.7 48.7 20.6 100.4 31 153.7 31s105.1-10.4 153.7-31c47-19.9 89.3-48.4 125.6-84.7 36.3-36.3 64.8-78.5 84.7-125.6 20.6-48.7 31-100.4 31-153.7s-10.4-105.1-31-153.7c-19.9-47.1-48.4-89.3-84.7-125.6zM706.5 543.1l-159.1-159.1 159.1-159.1-35.4-35.4-159.1 159.1-159.1-159.1-35.4 35.4 159.1 159.1-159.1 159.1 35.4 35.4 159.1-159.1 159.1 159.1 35.4-35.4z"  horiz-adv-x="1024" />

    
    <glyph glyph-name="calendar" unicode="&#59066;" d="M752.3 729.9V818.1h-50v-88.2H321.7V818.1h-50v-88.2H64v-780h896v780H752.3z m157.7-740H114v690h157.7v-101.8h50V679.9h380.5v-101.8h50V679.9H910v-690z"  horiz-adv-x="1024" />

    
    <glyph glyph-name="top-bold" unicode="&#59067;" d="M936.3 228.4l-113.2-113.1-311.1 311.1-311.1-311.1-113.2 113.1 424.3 424.3 424.3-424.3z"  horiz-adv-x="1024" />

    
    <glyph glyph-name="bottom" unicode="&#59068;" d="M905.1 562.9l-35.4 35.3-357.7-357.7-357.7 357.7-35.4-35.3 393.1-393.1z"  horiz-adv-x="1024" />

    
    <glyph glyph-name="top" unicode="&#59069;" d="M118.9 205.1l35.4-35.3 357.7 357.7 357.7-357.7 35.4 35.3-393.1 393.1z"  horiz-adv-x="1024" />

    
    <glyph glyph-name="right" unicode="&#59070;" d="M333.1 777.1l-35.3-35.4 357.7-357.7-357.7-357.7 35.3-35.4 393.1 393.1z"  horiz-adv-x="1024" />

    
    <glyph glyph-name="right-bold" unicode="&#59071;" d="M356.4-40.3l-113.1 113.2 311.1 311.1-311.1 311.1 113.1 113.2 424.3-424.3-424.3-424.3z"  horiz-adv-x="1024" />

    
    <glyph glyph-name="bottom-bold" unicode="&#59072;" d="M87.7 539.6l113.1 113.1 311.2-311.1 311.1 311.1 113.1-113.1-424.2-424.3-424.3 424.3z"  horiz-adv-x="1024" />

    
    <glyph glyph-name="left" unicode="&#59073;" d="M690.9-9.1l35.3 35.4-357.7 357.7 357.7 357.7-35.3 35.4-393.1-393.1z"  horiz-adv-x="1024" />

    
    <glyph glyph-name="left-bold" unicode="&#59074;" d="M667.6 808.3l113.1-113.1-311.1-311.2 311.1-311.1-113.1-113.2-424.3 424.3 424.3 424.3z"  horiz-adv-x="1024" />

    
    <glyph glyph-name="upload-pic" unicode="&#59075;" d="M64.2 27.2h50v-90.9h-50zM64.2 197.2h50v-120h-50zM499.8 831.7h120v-50h-120zM64.2 367.2h50v-120h-50zM909.8 599.8h50v-120h-50zM669.8 831.7h120v-50h-120zM839.8 831.7h120v-50h-120zM909.8 769.8h50v-120h-50zM64.2 537.2h50v-120h-50zM313.3-13.7h120v-50h-120zM483.3-13.7h120v-50h-120zM329.8 831.7h120v-50h-120zM747.7 554.3l-212.2-212.2 35.4-35.3 151.8 151.8v-522.1h50v522.1l151.7-151.8 35.4 35.3zM64.2 707.2h50v-120h-50zM64.2 781.7v-24.4h50v74.4h-50v-50zM159.8 831.7h120v-50h-120zM143.3-13.7h120v-50h-120z"  horiz-adv-x="1024" />

    
    <glyph glyph-name="community" unicode="&#59076;" d="M960.2 362.7h-54.6c-8.1 16.4-17.8 31.4-29.1 44.9-33.8 40.3-77.9 62.5-124.3 62.5-15.5 0-30.7-2.5-45.3-7.3v1c0 17-2.2 33.6-6.3 49.3 16.6 4.5 33.8 6.9 51.6 6.9 91.9 0.1 171.2-64.3 208-157.3zM625 623.2c-1.9 8.7-2.8 17.8-2.8 27.1 0 71.8 58.2 130 130 130s130-58.2 130-130-58.2-130-130-130c-20.9 0-40.7 5-58.3 13.8-13.8 36-38 66.9-68.9 89.1zM672.2 650.3c0-44.1 35.9-80 80-80s80 35.9 80 80-35.9 80-80 80-80-35.9-80-80zM314.9 463.6v0.3c0 17.2 2.2 34 6.4 49.9-15.9 4.2-32.5 6.4-49.4 6.4-91.9 0-171.3-64.4-208.1-157.4h54.6c8.1 16.4 17.8 31.4 29.1 44.9 33.8 40.3 77.9 62.5 124.3 62.5 14.7-0.1 29.1-2.3 43.1-6.6zM141.8 650.3c0 71.8 58.2 130 130 130s130-58.2 130-130c0-8.6-0.8-17.1-2.5-25.2-32.6-22.6-57.9-54.7-72.1-92.4-16.8-7.9-35.6-12.4-55.5-12.4-71.7 0-129.9 58.2-129.9 130zM191.8 650.3c0-44.1 35.9-80 80-80s80 35.9 80 80-35.9 80-80 80-80-35.9-80-80zM853-12.3h-50.4c-3.7 25.9-10.4 51-20.2 75.2-15 37-36.4 70.2-63.7 98.6-27.1 28.3-58.7 50.5-93.8 66-36.1 15.9-74.5 24-114.1 24s-78-8.1-114.1-24c-35.1-15.5-66.6-37.7-93.8-66-27.3-28.5-48.7-61.6-63.7-98.6-9.8-24.2-16.6-49.4-20.2-75.2h-50.4c20.8 169.4 154.4 302.1 319.8 313.1-80.2 10.9-142.1 79.7-142.1 163 0 90.9 73.6 164.5 164.5 164.5s164.5-73.6 164.5-164.5c0-83.2-61.8-152-142.1-163 165.4-11 299.1-143.6 319.8-313.1zM510.9 349.3c30.6 0 59.3 11.9 81 33.5 21.6 21.6 33.5 50.4 33.5 81s-11.9 59.3-33.5 81c-21.6 21.6-50.4 33.5-81 33.5s-59.3-11.9-81-33.5c-21.6-21.6-33.5-50.4-33.5-81s11.9-59.3 33.5-81c21.6-21.6 50.4-33.5 81-33.5z"  horiz-adv-x="1024" />

    
    <glyph glyph-name="clock" unicode="&#59077;" d="M512 829c-245.8 0-445-199.2-445-445s199.2-445 445-445 445 199.2 445 445-199.2 445-445 445zM791.3 104.7c-36.3-36.3-78.5-64.8-125.6-84.7-48.7-20.6-100.4-31-153.7-31s-105.1 10.4-153.7 31c-47 19.9-89.3 48.4-125.6 84.7-36.3 36.3-64.8 78.5-84.7 125.6-20.6 48.7-31 100.4-31 153.7s10.4 105.1 31 153.7c19.9 47 48.4 89.3 84.7 125.6 36.3 36.3 78.5 64.8 125.6 84.7 48.7 20.6 100.4 31 153.7 31s105.1-10.4 153.7-31c47-19.9 89.3-48.4 125.6-84.7 36.3-36.3 64.8-78.5 84.7-125.6 20.6-48.7 31-100.4 31-153.7s-10.4-105.1-31-153.7c-19.9-47.1-48.4-89.3-84.7-125.6zM517.5 348l251-79.8-15.2-47.6-285.9 90.9v400.5h50v-364z"  horiz-adv-x="1024" />

    
    <glyph glyph-name="authorise" unicode="&#59078;" d="M726.3 133c79 4.3 141.6 69.7 141.6 149.8 0 82.8-67.2 150-150 150s-150-67.2-150-150c0-80 62.7-145.4 141.6-149.8-104.3-3.8-192.5-79.3-226.5-184h53.2c31.6 79.1 101.2 134.2 181.8 134.2s150.1-55.1 181.7-134.2h53.2c-34 104.7-122.2 180.2-226.6 184zM617.9 282.8c0 55.1 44.9 100 100 100s100-44.9 100-100-44.9-100-100-100-100 44.9-100 100zM701 669h-50v50h50v-50zM811 669h-50v50h50v-50zM67 819v-870h336.6v50h-286.6v573h790v-419.1h50v666.1h-890zM907 622h-790v147h790v-147z"  horiz-adv-x="1024" />

    
    <glyph glyph-name="window" unicode="&#59079;" d="M67 819v-870h890v870h-890zM907 769v-147h-790v147h790zM117-1v573h790v-573h-790zM701 669h-50v50h50v-50zM811 669h-50v50h50v-50z"  horiz-adv-x="1024" />

    
    <glyph glyph-name="event" unicode="&#59080;" d="M752.3 724.9v98.2h-50v-98.2h-380.6v98.2h-50v-98.2h-207.7v-780h896v780h-207.7zM910-5.1h-796v485.2h796v-485.2zM910 530.1h-796v144.8h157.7v-51.8h50v51.8h380.5v-51.8h50v51.8h157.8v-144.8zM772 285h-520v50h520v-50zM514.1 175h257.9v-50h-257.9v50z"  horiz-adv-x="1024" />

    
    <glyph glyph-name="data-base" unicode="&#59081;" d="M942 704.1c-2.2 63-193.9 113.9-430 113.9s-427.8-50.9-430-113.9v-639.1c0-63.5 192.5-115 430-115s430 51.5 430 115v639.1zM885.3 310.3c-4.6-3.3-11.6-7.4-21.9-12.2-21.3-9.8-50.5-19.1-84.4-26.8-74-16.8-168.8-26-267-26s-193 9.2-267 26c-33.9 7.7-63.1 16.9-84.4 26.8-10.3 4.8-17.3 8.9-21.9 12.2 0.1 0.1 0.2 0.1 0.3 0.2h-7v123c72.2-36.4 215.3-61.1 380-61.1s307.8 24.8 380 61.1v-122.9h-7l0.3-0.3zM885.3 487.3c-4.6-3.3-11.6-7.4-21.9-12.2-21.3-9.8-50.5-19.1-84.4-26.8-74-16.8-168.8-26-267-26s-193 9.2-267 26c-33.9 7.7-63.1 16.9-84.4 26.8-10.3 4.8-17.3 8.9-21.9 12.2 0.1 0.1 0.2 0.1 0.3 0.2h-7v161.6c72.2-36.4 215.3-61.1 380-61.1s307.8 24.8 380 61.1v-161.6h-7c0.1 0 0.2-0.1 0.3-0.2zM160.7 715.2c21.3 9.8 50.5 19.1 84.3 26.8 74 16.8 168.8 26 267 26s193-9.2 267-26c33.9-7.7 63.1-16.9 84.4-26.8 10.3-4.8 17.3-8.9 21.9-12.2-4.6-3.3-11.6-7.4-21.9-12.2-21.4-9.8-50.6-19.1-84.4-26.8-74-16.8-168.8-26-267-26s-193 9.2-267 26c-33.9 7.7-63.1 16.9-84.4 26.8-10.3 4.8-17.3 8.9-21.9 12.2 4.7 3.3 11.7 7.4 22 12.2zM885.3 65c-4.6-3.3-11.6-7.4-21.9-12.2-21.4-9.8-50.6-19.1-84.4-26.8-74-16.8-168.8-26-267-26s-193 9.2-267 26c-33.9 7.7-63.1 16.9-84.4 26.8-10.3 4.8-17.3 8.9-21.9 12.2 0.1 0.1 0.2 0.1 0.3 0.2h-7v191.3c72.2-36.4 215.3-61.1 380-61.1s307.8 24.8 380 61.1v-191.3h-7c0.1-0.1 0.2-0.1 0.3-0.2z"  horiz-adv-x="1024" />

    
    <glyph glyph-name="back-circle" unicode="&#59082;" d="M928 384c0-212.6-172.4-385-385-385-195.7 0-357.3 146-381.8 335h50.5c4.1-27.6 11.7-54.5 22.6-80.4 16.9-39.9 41-75.7 71.8-106.5 30.8-30.8 66.6-54.9 106.5-71.8 41.3-17.4 85.2-26.3 130.4-26.3s89.1 8.9 130.4 26.3c39.9 16.9 75.7 41 106.5 71.8 30.8 30.8 54.9 66.6 71.8 106.5 17.5 41.3 26.3 85.2 26.3 130.4s-8.9 89.1-26.3 130.4c-16.9 39.9-41 75.7-71.8 106.5-30.8 30.8-66.6 54.9-106.5 71.8-41.3 17.4-85.1 26.3-130.4 26.3s-89.1-8.9-130.4-26.3c-39.9-16.9-75.7-41-106.5-71.8-30.8-30.8-54.9-66.6-71.8-106.5-6.8-16.2-12.4-32.7-16.5-49.6l69.7 32.5 21.1-45.3-145-67.6-67.6 144.9 45.3 21.1 30.3-64.9c44.5 163.4 193.9 283.5 371.4 283.5 212.6 0 385-172.4 385-385z"  horiz-adv-x="1024" />

    
    <glyph glyph-name="refresh-circle" unicode="&#59083;" d="M132.6 384.3l-67.6 145 45.3 21.1 30.3-64.9c44.5 163.4 193.9 283.5 371.4 283.5 195.7 0 357.3-146 381.8-335h-50.5c-4.1 27.6-11.7 54.5-22.6 80.4-16.9 39.9-41 75.7-71.8 106.5-30.8 30.8-66.6 54.9-106.5 71.8-41.3 17.4-85.2 26.3-130.4 26.3s-89.1-8.9-130.4-26.3c-39.9-16.9-75.7-41-106.5-71.8-30.8-30.8-54.9-66.6-71.8-106.5-6.8-16.2-12.4-32.7-16.5-49.6l69.7 32.5 21.1-45.3-145-67.7zM891.4 383.7l-145-67.6 21.1-45.3 69.7 32.5c-4.2-16.9-9.7-33.5-16.5-49.6-16.9-39.9-41-75.7-71.8-106.5-30.8-30.8-66.6-54.9-106.5-71.8-41.3-17.5-85.2-26.4-130.4-26.4s-89.1 8.9-130.4 26.3c-39.9 16.9-75.7 41-106.5 71.8-30.8 30.8-54.9 66.6-71.8 106.5-10.9 25.9-18.5 52.8-22.6 80.4h-50.5c24.5-189 186.1-335 381.8-335 177.5 0 326.9 120.1 371.4 283.4l30.3-64.9 45.3 21.1-67.6 145.1z"  horiz-adv-x="1024" />

    
    <glyph glyph-name="refresh-square" unicode="&#59084;" d="M177.4 375.3l-141.4 141.4 35.4 35.4 81.1-81.1v271h719v-244.6h-50v194.6h-619v-221l81.1 81.1 35.4-35.4-141.6-141.4zM846.6 392.7l-141.4-141.4 35.4-35.4 81.1 81.1v-221h-619v194.6h-50v-244.6h719v271l81.1-81.1 35.4 35.4-141.6 141.4z"  horiz-adv-x="1024" />

    
    <glyph glyph-name="back-square" unicode="&#59085;" d="M211.8 623.2l116.2 116.2-35.3 35.4-176.8-176.8 176.8-176.8 35.3 35.4-116.6 116.6h646.7v-530h-718v-50h768v630z"  horiz-adv-x="1024" />

    
    <glyph glyph-name="attend" unicode="&#59086;" d="M957.4 230.29999999999995v-50h-225v-225h-50v225h-225v50h225v225h50v-225h225z m-781 458.8c22.5 26.8 62.4 58.8 124.6 58.8 66.9 0 135.1-33.7 169.9-83.8l41.1-59.2 41.1 59.2c34.8 50.1 103.1 83.8 169.9 83.8 62.2 0 102.1-32 124.6-58.8 15.7-18.7 28-40.7 36.6-65.4 8.8-25.4 13.3-52.4 13.3-80.3 0-28.6-2.2-56.6-6.5-83.9h50.6c3.8 26.7 5.9 54.6 5.9 83.9 0 135-89.5 254.5-224.5 254.5-83.3 0-166.8-41.7-211-105.3-44.1 63.6-127.7 105.3-211 105.3-135 0-224.5-119.5-224.5-254.5 0-285 199.1-446.7 328.1-521.5v58.4c-24.9 15.7-51.6 34.6-78.4 56.8-58.4 48.7-104.9 103.5-138 163.2-19.5 35-34.5 72.2-44.7 110.4-11.3 42.2-17 86.8-17 132.7 0 27.9 4.5 54.9 13.3 80.3 8.6 24.7 20.9 46.8 36.6 65.4z"  horiz-adv-x="1024" />

    
    <glyph glyph-name="attended" unicode="&#59087;" d="M723 797.9c-83.3 0-166.8-41.7-211-105.3-44.1 63.6-127.7 105.3-211 105.3-135 0-224.5-119.5-224.5-254.5 0-421.5 435.5-573.3 435.5-573.3s435.5 148 435.5 573.3c0 135-89.5 254.5-224.5 254.5zM836.6 300.3c-32.7-59.5-78.5-114.1-136.3-162.4-52.3-43.9-105-74.2-139.9-91.9-20.1-10.2-36.8-17.6-48.2-22.2-32.6 13.6-109.2 49.5-185.9 113.4-58.4 48.7-104.9 103.5-138 163.2-19.5 35-34.5 72.2-44.7 110.4-11.3 42.2-17 86.8-17 132.7 0 27.9 4.5 54.9 13.3 80.3 8.6 24.7 20.9 46.8 36.6 65.4 22.5 26.8 62.4 58.8 124.6 58.8 66.9 0 135.1-33.7 169.9-83.8l41.1-59.2 41.1 59.2c34.8 50.1 103.1 83.8 169.9 83.8 62.2 0 102.1-32 124.6-58.8 15.7-18.7 28-40.7 36.6-65.4 8.8-25.4 13.3-52.4 13.3-80.3 0-46-5.6-90.7-16.8-132.9-10.2-38.3-25-75.4-44.2-110.3z"  horiz-adv-x="1024" />

    
    <glyph glyph-name="picture" unicode="&#59088;" d="M82 814v-860h860v860h-860zM132 4v127.4l222.3 222.3 205.8-205.8-143.8-143.9h-284.3zM892 4h-405l262.9 262.9 142.1-142.1v-120.8zM892 195.5l-142.1 142.1-154.4-154.3-241.2 241.2-222.3-222.4v561.9h760v-568.5zM671 417.9c71.8 0 130 58.2 130 130s-58.2 130-130 130-130-58.2-130-130 58.2-130 130-130zM671 627.9c44.1 0 80-35.9 80-80s-35.9-80-80-80-80 35.9-80 80c0 44.2 35.9 80 80 80z"  horiz-adv-x="1024" />

    
    <glyph glyph-name="network" unicode="&#59089;" d="M512 829c-245.8 0-445-199.2-445-445s199.2-445 445-445 445 199.2 445 445-199.2 445-445 445zM314.4 726.1c-0.4-0.3-0.9-0.5-1.3-0.8 0.4 0.3 0.9 0.5 1.3 0.8zM308.5 722.6c-0.3-0.2-0.6-0.3-0.8-0.5 0.3 0.2 0.5 0.4 0.8 0.5zM302.3 718.8zM232.7 663.3c20.8 20.8 43.6 39.1 68.2 54.6-12.5-29.2-23.4-59.3-32.6-90.1-30.8-9.2-60.9-20.1-90.2-32.7 15.5 24.6 33.8 47.4 54.6 68.2zM178.1 595.1c-3.9-6.2-7.7-12.6-11.3-19 3.6 6.4 7.3 12.8 11.3 19zM147.7 536.9c16.1 8.1 32.5 15.7 49.1 22.7 19.4 8.2 39.2 15.6 59.2 22.3-13.7-57.2-21.6-116.8-23-177.9h-115.5c2.3 46 12.4 90.6 30.2 132.9zM233 364c1.4-61.1 9.3-120.7 22.9-177.9-20 6.7-39.8 14.1-59.2 22.3-16.6 7-32.9 14.6-49.1 22.7-17.8 42.3-27.9 86.9-30.2 132.9h115.6zM166.8 191.9c3.6-6.4 7.4-12.8 11.3-19-4 6.2-7.7 12.6-11.3 19zM232.7 104.7c-20.8 20.8-39.1 43.6-54.6 68.2 29.2-12.5 59.3-23.4 90.2-32.7 9.2-30.8 20.1-60.9 32.7-90.2-24.7 15.6-47.5 33.9-68.3 54.7zM300.9 50.1c6.2-3.9 12.6-7.7 19-11.3-6.4 3.6-12.8 7.3-19 11.3zM492-10.5c-46 2.3-90.6 12.4-132.9 30.2-8.1 16.1-15.7 32.5-22.7 49.1-8.2 19.4-15.6 39.2-22.3 59.2 57.3-13.7 116.8-21.5 177.9-22.9v-115.6zM492 145c-48.3 1.2-96.4 6.6-143.3 16.2-16.1 3.3-32.2 7.1-48.1 11.4-4.3 15.9-8.1 32-11.4 48.1-9.6 46.9-15 95-16.2 143.3h219v-219zM492 404h-219c1.2 48.3 6.6 96.4 16.2 143.3 3.3 16.1 7.1 32.2 11.4 48.1 15.9 4.3 32 8.1 48.1 11.4 46.9 9.6 95 15 143.3 16.2v-219zM492 663c-61.1-1.4-120.7-9.3-177.9-22.9 6.7 20 14.1 39.8 22.3 59.2 7 16.6 14.6 32.9 22.7 49.1 42.3 17.8 86.9 27.9 132.9 30.2v-115.6zM906.5 404h-115.5c-1.4 61.1-9.3 120.7-22.9 177.9 20-6.7 39.8-14.1 59.2-22.3 16.6-7 32.9-14.6 49.1-22.7 17.7-42.3 27.8-86.9 30.1-132.9zM854.1 581.6c-0.3 0.4-0.5 0.9-0.8 1.3 0.3-0.4 0.5-0.9 0.8-1.3zM850.6 587.5c-0.2 0.3-0.3 0.6-0.5 0.8 0.2-0.3 0.4-0.5 0.5-0.8zM846.8 593.7zM845.9 595.1c-29.2 12.5-59.3 23.4-90.1 32.6-9.2 30.8-20.1 60.9-32.6 90.1 24.5-15.5 47.3-33.8 68.2-54.6 20.7-20.7 39-43.5 54.5-68.1zM721.7 718.8zM716.3 722.1c-0.3 0.2-0.6 0.3-0.8 0.5 0.3-0.1 0.5-0.3 0.8-0.5zM710.9 725.3c-0.4 0.3-0.9 0.5-1.3 0.8 0.4-0.3 0.9-0.5 1.3-0.8zM532 778.5c46-2.3 90.6-12.4 132.9-30.2 8.1-16.1 15.7-32.5 22.7-49.1 8.2-19.4 15.6-39.2 22.3-59.2-57.2 13.7-116.8 21.6-177.9 23v115.5zM532 623c48.3-1.2 96.4-6.6 143.3-16.2 16.1-3.3 32.2-7.1 48.1-11.4 4.3-15.9 8.1-32 11.4-48.1 9.6-46.9 15-95 16.2-143.3h-219v219zM532 364h219c-1.2-48.3-6.6-96.4-16.2-143.3-3.3-16.1-7.1-32.2-11.4-48.1-15.9-4.3-32-8.1-48.1-11.4-46.9-9.6-95-15-143.3-16.2v219zM664.9 19.7c-42.3-17.8-86.9-27.9-132.9-30.2v115.5c61.1 1.4 120.7 9.3 177.9 22.9-6.7-20-14.1-39.8-22.3-59.2-7-16.6-14.6-32.9-22.7-49zM704.1 38.8c6.4 3.6 12.8 7.4 19 11.3-6.2-4-12.6-7.7-19-11.3zM791.3 104.7c-20.8-20.8-43.6-39.1-68.2-54.6 12.5 29.2 23.4 59.3 32.7 90.2 30.8 9.2 60.9 20.1 90.1 32.6-15.5-24.6-33.8-47.4-54.6-68.2zM846.8 174.3zM850.1 179.7c0.2 0.3 0.3 0.6 0.5 0.8-0.1-0.3-0.3-0.5-0.5-0.8zM853.3 185.1c0.3 0.4 0.5 0.9 0.8 1.3-0.3-0.4-0.5-0.9-0.8-1.3zM876.3 231.1c-16.1-8.1-32.5-15.7-49.1-22.7-19.4-8.2-39.2-15.6-59.2-22.3 13.7 57.3 21.5 116.8 22.9 177.9h115.5c-2.2-46-12.3-90.6-30.1-132.9z"  horiz-adv-x="1024" />

    
    <glyph glyph-name="order-mine" unicode="&#59090;" d="M497.5-60.1c25.7 120.2 120.3 209.4 233.1 209.4s207.4-89.2 233.1-209.4h-51.4c-23.8 92.2-96.3 159.4-181.8 159.4s-158-67.2-181.8-159.4h-51.2zM585.7 294.3c0 80.1 64.9 145 145 145s145-64.9 145-145-64.9-145-145-145-145 64.9-145 145zM635.7 294.3c0-52.4 42.6-95 95-95s95 42.6 95 95-42.6 95-95 95-95-42.7-95-95zM140.4-10.1h258.9v-50h-308.9v820h215v68.2h360v-68.2h215v-275.5h-50v225.5h-165v-61.8h-360v61.8h-165v-720zM355.4 698.1h260v80h-260v-80zM260.4 320.2h254.7v50h-254.7v-50zM260.4 470.9h450v50h-450v-50z"  horiz-adv-x="1024" />

    
    <glyph glyph-name="info" unicode="&#59091;" d="M122 832v-896h780v896h-780zM852-14h-680v796h680v-796zM762 565h-310v50h310v-50zM762 404.9h-500v50h500v-50zM762 244.8h-500v50h500v-50z"  horiz-adv-x="1024" />

    
    <glyph glyph-name="info-read" unicode="&#59092;" d="M959.6 233l-297-297-169.7 169.7 35.4 35.4 134.4-134.4 261.6 261.6 35.3-35.3zM172 782h680v-479h50v529h-780v-896h366v50h-316v796zM262 244.8h226v50h-226v-50zM762 615h-310v-50h310v50zM262 404.9h500v50h-500v-50z"  horiz-adv-x="1024" />

    
    <glyph glyph-name="pause" unicode="&#59093;" d="M512 829c-245.8 0-445-199.2-445-445s199.2-445 445-445 445 199.2 445 445-199.2 445-445 445zM791.3 104.7c-36.3-36.3-78.5-64.8-125.6-84.7-48.7-20.6-100.4-31-153.7-31s-105.1 10.4-153.7 31c-47 19.9-89.3 48.4-125.6 84.7-36.3 36.3-64.8 78.5-84.7 125.6-20.6 48.7-31 100.4-31 153.7s10.4 105.1 31 153.7c19.9 47 48.4 89.3 84.7 125.6 36.3 36.3 78.5 64.8 125.6 84.7 48.7 20.6 100.4 31 153.7 31s105.1-10.4 153.7-31c47-19.9 89.3-48.4 125.6-84.7 36.3-36.3 64.8-78.5 84.7-125.6 20.6-48.7 31-100.4 31-153.7s-10.4-105.1-31-153.7c-19.9-47.1-48.4-89.3-84.7-125.6zM381.1 564h50v-360h-50v360zM592.9 564h50v-360h-50v360z"  horiz-adv-x="1024" />

    
    <glyph glyph-name="message" unicode="&#59094;" d="M64 816.1v-720h159.9l74.2-144.2 184.2 144.2H960v720H64z m846-670H465.1l-13.6-10.6-136.6-107-46.5 90.5-14 27.1H114v620h796v-620zM321.7 414h-50V514h50v-100z m210.3 0h-50V514h50v-100z m220.3 0h-50V514h50v-100z"  horiz-adv-x="1024" />

    
    <glyph glyph-name="middleware" unicode="&#59095;" d="M588.9 18.4v49.2h-51.9v102h375.1v630h-800v-630h374.9v-102.1h-51.6v-49.2h-371.4v-50h896v50h-371.1zM862.1 749.6v-383.3h-700v383.3h700zM162.1 316.4h700v-96.7h-700v96.7z"  horiz-adv-x="1024" />

    
    <glyph glyph-name="finish" unicode="&#59096;" d="M512 829C266.2 829 67 629.8 67 384s199.2-445 445-445 445 199.2 445 445S757.8 829 512 829z m279.3-724.3c-36.3-36.3-78.5-64.8-125.6-84.7-48.7-20.6-100.4-31-153.7-31s-105.1 10.4-153.7 31c-47 19.9-89.3 48.4-125.6 84.7-36.3 36.3-64.8 78.5-84.7 125.6-20.6 48.7-31 100.4-31 153.7s10.4 105.1 31 153.7c19.9 47 48.4 89.3 84.7 125.6 36.3 36.3 78.5 64.8 125.6 84.7 48.7 20.6 100.4 31 153.7 31s105.1-10.4 153.7-31c47-19.9 89.3-48.4 125.6-84.7 36.3-36.3 64.8-78.5 84.7-125.6 20.6-48.7 31-100.4 31-153.7s-10.4-105.1-31-153.7c-19.9-47.1-48.4-89.3-84.7-125.6z m-45.2 474.5l35.4-35.4-355-355-183.9 183.9 35.4 35.4 148.5-148.5 319.6 319.6z"  horiz-adv-x="1024" />

    
    <glyph glyph-name="folder" unicode="&#59097;" d="M493.5 679l-135.5 130h-294v-850h896v720h-466.5zM337.9 759l135.5-130h436.6v-62.5h-796v192.5h223.9zM114 9v507.5h796v-507.5h-796z"  horiz-adv-x="1024" />

    
    <glyph glyph-name="midware" unicode="&#59098;" d="M461.8 769.3c20.9 0 41.3-5.9 58.9-17.1 17.2-10.9 31-26.3 39.9-44.5l13.7-27.9h228.1v-225.8l31.4-12.6c20.1-8.1 37.3-21.9 49.7-39.9 12.6-18.3 19.3-39.9 19.3-62.3s-6.7-43.9-19.3-62.3c-12.4-18-29.6-31.8-49.7-39.9l-31.4-12.6v-225.9h-681.2v179.4c47.8 39.6 75.6 98.1 75.6 161.4 0 63.3-27.8 121.8-75.6 161.4v179.2h228.1l13.7 27.9c9 18.2 22.8 33.6 39.9 44.5 17.6 11.1 38 17 58.9 17M461.8 819.3c-63 0-117.6-36.5-143.6-89.5h-247v-254.7c45.4-28.2 75.6-78.6 75.6-135.9s-30.2-107.7-75.6-135.9v-254.7h781.2v242.2c58.8 23.6 100.4 81.2 100.4 148.5s-41.5 124.9-100.4 148.5v242.1h-247c-26 53-80.6 89.4-143.6 89.4z"  horiz-adv-x="1024" />

    
    <glyph glyph-name="histogram" unicode="&#59099;" d="M66-45h240v508h-240v-508zM116 413h140v-408h-140v408zM392-45h240v858h-240v-858zM442 763h140v-758h-140v758zM718 595v-640h240v640h-240zM908 5h-140v540h140v-540z"  horiz-adv-x="1024" />

    
    <glyph glyph-name="panel" unicode="&#59100;" d="M956.5 294.8v-192.8h-50v189c0 53.3-10.4 104.9-31 153.5-19.9 47-48.3 89.2-84.6 125.4-36.2 36.2-78.4 64.7-125.4 84.6-48.6 20.6-100.3 31-153.5 31-53.3 0-104.9-10.4-153.5-31-47-19.9-89.2-48.3-125.4-84.6-36.2-36.2-64.7-78.4-84.6-125.4-20.6-48.6-31-100.3-31-153.5v-189h-50v192.8c2 243.7 200.3 440.7 444.5 440.7s442.4-196.9 444.5-440.7zM186.3 441.6l409.1-282.8v-126.3h-126.2l-282.9 409.1zM545.5 132.5l-162.3 112.2 112.2-162.2h50.1v50z"  horiz-adv-x="1024" />

    
    <glyph glyph-name="unknow" unicode="&#59101;" d="M822 819h-620l-130-284.8v-585.2h880v585.2l-130 284.8zM234.1 769h555.7l99.5-217.9h-754.6l99.4 217.9zM122-1v502.1h780v-502.1h-780z"  horiz-adv-x="1024" />

    
    <glyph glyph-name="net-device" unicode="&#59102;" d="M788.2 421.5v385h-49.3v-385h-453.8v385h-49.3v-385h-171.8v-460h896v460h-171.8zM910 11.5h-796v360h796v-360zM281.8 136.5h-50v110h50v-110zM409.4 136.5h-50v110h50v-110zM537 136.5h-50v110h50v-110zM664.6 136.5h-50v110h50v-110zM792.2 136.5h-50v110h50v-110z"  horiz-adv-x="1024" />

    
    <glyph glyph-name="compass" unicode="&#59103;" d="M512 829c-245.8 0-445-199.2-445-445s199.2-445 445-445 445 199.2 445 445-199.2 445-445 445zM791.3 104.7c-36.3-36.3-78.5-64.8-125.6-84.7-48.7-20.6-100.4-31-153.7-31s-105.1 10.4-153.7 31c-47 19.9-89.3 48.4-125.6 84.7-36.3 36.3-64.8 78.5-84.7 125.6-20.6 48.7-31 100.4-31 153.7s10.4 105.1 31 153.7c19.9 47 48.4 89.3 84.7 125.6 36.3 36.3 78.5 64.8 125.6 84.7 48.7 20.6 100.4 31 153.7 31s105.1-10.4 153.7-31c47-19.9 89.3-48.4 125.6-84.7 36.3-36.3 64.8-78.5 84.7-125.6 20.6-48.7 31-100.4 31-153.7s-10.4-105.1-31-153.7c-19.9-47.1-48.4-89.3-84.7-125.6zM537 657.3h-50v50h50v-50zM487 110.7h50v-50h-50v50zM785.3 409h50v-50h-50v50zM188.7 409h50v-50h-50v50zM288 578l155.6-228.9 292.4-219.1-219.2 292.5-228.8 155.5zM480.2 384.2l-3.5 5.1 5.1-3.5 4.9-6.5-6.5 4.9z"  horiz-adv-x="1024" />

    
    <glyph glyph-name="cloud" unicode="&#59104;" d="M977.4 206.60000000000002c0-116.6-94-211.3-210.3-212.5H682v50h84.6c43 0.4 83.4 17.5 113.8 48.1 30.3 30.6 47 71.2 47 114.3 0 25.7-5.8 50.2-17.2 72.9-10.9 21.7-26.9 41-46.3 55.9l-32.3 24.9 17.8 36.6c15.1 31.1 22.8 64.6 22.8 99.4 0 30.7-6 60.5-17.9 88.5-11.5 27.1-27.9 51.4-48.8 72.3s-45.2 37.3-72.3 48.8c-28 11.8-57.8 17.9-88.5 17.9-36.3 0-71-8.3-103.1-24.7-30.7-15.6-57.9-38.5-78.7-66l-16.6-22-27.4 2.2c-5.4 0.4-10.9 0.7-16.1 0.7-48.5 0-94.9-17.9-130.7-50.5-35.6-32.3-57.9-76.3-62.8-123.9l-2.5-24.1-20.4-13c-27.1-17.3-49.7-41.2-65.4-69.2-16.1-28.8-24.7-61.6-24.7-94.9 0-52 20.2-100.8 57-137.5 36.7-36.7 85.6-57 137.5-57 1.1 0 2.5 0 3.8 0.1l47.1-0.1v-50h-46.2v0.1c-1.6 0-3.2-0.1-4.7-0.1-135 0-244.5 109.5-244.5 244.5 0 86.7 45.1 162.8 113.2 206.3C172.3 568 276.4 664.1 402.9 664.1c6.8 0 13.5-0.3 20.2-0.8 50.6 67.2 131.1 110.6 221.7 110.6 153.3 0 277.5-124.2 277.5-277.5 0-43.5-10-84.7-27.9-121.3 50.5-38.9 83-99.9 83-168.5z m-232.1 46.9L512 486.8 278.7 253.5l35.4-35.4 173 173V45h50V391.1l173-173 35.2 35.4z"  horiz-adv-x="1024" />

    
    <glyph glyph-name="add" unicode="&#59105;" d="M197.3 698.7c-173.8-173.8-173.8-455.5 0-629.3s455.5-173.8 629.3 0 173.8 455.5 0 629.3-455.5 173.7-629.3 0zM907 384c0-51.3-9.7-101.3-28.9-148.7-19.9-49-49.1-92.9-86.8-130.6s-81.7-66.9-130.6-86.8c-47.4-19.2-97.4-28.9-148.7-28.9-51.3 0-101.3 9.7-148.7 28.9-49 19.9-92.9 49.1-130.6 86.8s-66.9 81.7-86.8 130.6c-19.2 47.4-28.9 97.4-28.9 148.7 0 51.3 9.7 101.3 28.9 148.7 19.9 49 49.1 92.9 86.8 130.6s81.7 66.9 130.6 86.8c47.4 19.2 97.4 28.9 148.7 28.9 51.3 0 101.3-9.7 148.7-28.9 49-19.9 92.9-49.1 130.6-86.8s66.9-81.7 86.8-130.6c19.2-47.4 28.9-97.4 28.9-148.7zM537 634v-225h225v-50h-225v-225h-50v225h-225v50h225v225h50z"  horiz-adv-x="1024" />

    
    <glyph glyph-name="app" unicode="&#59106;" d="M92-33h390v390h-390v-390zM142 307h290v-290h-290v290zM542-33h390v390h-390v-390zM592 307h290v-290h-290v290zM542 801v-390h390v390h-390zM882 461h-290v290h290v-290zM92 801h390v-390h-188.6v50h138.6v290h-290v-124.4h-50v174.4z"  horiz-adv-x="1024" />

    
    <glyph glyph-name="file" unicode="&#59107;" d="M867 514.8l-307.2 307.2h-402.8v-876h710v568.8zM609.8 701.3l136.5-136.5h-136.5v136.5zM817-4h-610v776h332.1l20.7-20.7v-236.5h236.5l20.7-20.7v-498.1zM475.5 519.2h-170v50h170v-50zM305.5 424.3h413v-50h-413v50zM305.5 279.4h413v-50h-413v50z"  horiz-adv-x="1024" />

    
    <glyph glyph-name="email" unicode="&#59108;" d="M64 764v-760h896v760h-896zM910 54h-796v444.5l398-216.5 398 216.5v-444.5zM910 555.4l-398-216.5-398 216.5v158.6h796v-158.6z"  horiz-adv-x="1024" />

    
    <glyph glyph-name="hardware" unicode="&#59109;" d="M72 811.9v-250h880v250H72z m830-200H122v150h780v-150zM72-43.89999999999998h880v560H72v-560z m50 510h780v-460H122v460z m111-140h50v-180h-50v180z m169.3 0h50v-180h-50v180z m169.4 0h50v-180h-50v180z m169.3 0h50v-180h-50v180z"  horiz-adv-x="1024" />

    
    <glyph glyph-name="screen" unicode="&#59110;" d="M960.3 118.4v679.2h-896.6v-679.2h308.6v-107.3h-182.3v-40.7h644v40.7h-182.3v107.3h308.6zM910.3 747.6v-446.4l-796.6-0.2v446.6h796.6zM113.7 260.3l796.5 0.2v-92.2h-796.5v92zM611 11.1h-198v107.3h198v-107.3z"  horiz-adv-x="1024" />

    
    <glyph glyph-name="star-full" unicode="&#59111;" d="M512 815.5l-170.5-242.3-283.2-87.3 177.7-237.1-4.4-296.2 280.4 95.7 280.4-95.8-4.4 296.2 177.7 237.1-283.1 87.3-170.6 242.4z"  horiz-adv-x="1024" />

    
    <glyph glyph-name="star-empty" unicode="&#59112;" d="M512 728.6l139.5-198.2 16.3-5 215.2-66.4-145.3-193.9 0.3-17.1 3.4-225.2-229.4 78.3-16.2-5.5-213.2-72.8 3.4 225.2 0.3 17.1-10.2 13.7-135.1 180.2 231.5 71.4 9.8 14 129.7 184.2M512 815.5l-170.5-242.3-283.2-87.3 177.7-237.1-4.4-296.2 280.4 95.7 280.4-95.8-4.4 296.2 177.7 237.1-283.1 87.3-170.6 242.4z"  horiz-adv-x="1024" />

    
    <glyph glyph-name="set-place" unicode="&#59113;" d="M64 380.3h359v-50h-309v-260h279v-50h-329v360zM64 800.5v-330h429v50h-379v230h796v-235.3h50v285.3h-896zM878.2 247.5h81.8v-50h-81.8c-4.2-29.6-15.9-56.9-33.1-79.8l57.8-57.8-35.4-35.4-57.8 57.8c-22.9-17.2-50.2-28.8-79.8-33.1v-81.8h-50v81.8c-29.6 4.2-56.9 15.9-79.8 33.1l-57.8-57.8-35.3 35.3 57.8 57.8c-17.2 22.9-28.8 50.2-33.1 79.8h-81.7v50h81.8c4.2 29.6 15.9 56.9 33.1 79.8l-57.9 57.9 35.4 35.4 57.8-57.8c22.9 17.2 50.2 28.8 79.8 33.1v81.8h50v-81.8c29.6-4.2 56.9-15.9 79.8-33.1l57.8 57.8 35.4-35.4-57.8-57.8c17.1-22.9 28.8-50.2 33-79.8zM831.3 222.5l-2.6 17.9c-2.9 20.6-11.1 40.2-23.6 56.9l-10.8 14.5-14.5 10.8c-16.7 12.5-36.3 20.6-56.9 23.6l-17.9 2.6-17.9-2.6c-20.6-2.9-40.2-11.1-56.9-23.6l-14.5-10.8-10.8-14.5c-12.5-16.7-20.6-36.3-23.6-56.9l-2.6-17.9 2.6-17.9c2.9-20.6 11.1-40.2 23.6-56.9l10.8-14.5 14.5-10.8c16.7-12.5 36.3-20.6 56.9-23.6l17.9-2.6 17.9 2.6c20.6 2.9 40.2 11.1 56.9 23.6l14.5 10.8 10.8 14.5c12.5 16.7 20.6 36.3 23.6 56.9l2.6 17.9z"  horiz-adv-x="1024" />

    
    <glyph glyph-name="set" unicode="&#59114;" d="M957 359.5v49h-141c-5.2 65.8-31.4 125.7-71.7 173.1l99.7 99.7-34.7 34.7-99.7-99.7c-47.4 40.4-107.3 66.5-173.1 71.7v141h-49v-141c-65.8-5.2-125.7-31.4-173.1-71.7l-99.7 99.7-34.7-34.7 99.7-99.7c-40.4-47.4-66.5-107.3-71.7-173.1h-141v-49h141c5.2-65.8 31.4-125.7 71.7-173.1l-99.7-99.7 34.6-34.6 99.7 99.7c47.4-40.4 107.3-66.5 173.1-71.7v-141h49v140.9c65.8 5.2 125.7 31.4 173.1 71.7l99.7-99.7 34.6 34.6-99.7 99.7c40.4 47.4 66.5 107.3 71.7 173.1h141.2zM766.2 363.5c-4.3-53.6-25-103.6-60-144.7l-13.3-15.7-15.7-13.3c-41.1-35-91.1-55.7-144.7-60l-20.5-1.6-20.5 1.6c-53.6 4.3-103.6 25-144.7 60l-15.7 13.3-13.3 15.7c-35 41.1-55.7 91.1-60 144.7l-1.6 20.5 1.6 20.5c4.3 53.6 25 103.6 60 144.7l13.3 15.7 15.7 13.3c41.1 35 91.1 55.7 144.7 60l20.5 1.6 20.5-1.6c53.6-4.3 103.6-25 144.7-60l15.7-13.3 13.3-15.7c35-41.1 55.7-91.1 60-144.7l1.6-20.5-1.6-20.5z"  horiz-adv-x="1024" />

    
    <glyph glyph-name="account-audit" unicode="&#59115;" d="M921.6 281.3l35.4-35.3-297-297-169.7 169.7 35.4 35.4 134.3-134.4 261.6 261.6zM811 719h-50v-50h50v50zM701 719h-50v-50h50v50zM957 819v-460h-50v213h-790v-573h358v-50h-408v870h890zM907 769h-790v-147h790v147z"  horiz-adv-x="1024" />

    
    <glyph glyph-name="config-account" unicode="&#59116;" d="M64 764v-760h896v760h-896zM910 54h-796v660h796v-660zM370.4 296.7c74.3 0 137.7-56.4 160.7-134.7h51.7c-24.5 103-105.5 179.7-202.9 184.4 67.4 4.9 120.5 61.1 120.5 129.7 0 71.8-58.2 130-130 130s-130-58.2-130-130c0-68.6 53.1-124.8 120.5-129.7-97.5-4.7-178.5-81.4-202.9-184.5h51.7c23 78.4 86.4 134.8 160.7 134.8zM290.4 476.1c0 44.1 35.9 80 80 80s80-35.9 80-80-35.9-80-80-80-80 35.9-80 80zM843.6 480.5h-200v50h200v-50zM843.6 359h-200v50h200v-50zM736.6 287.5h107v-50h-107v50z"  horiz-adv-x="1024" />

    
    <glyph glyph-name="eye" unicode="&#59117;" d="M512 678.5c-247.1 0-447.5-309.5-447.5-309.5s200.4-279.5 447.5-279.5 447.5 279.5 447.5 279.5-200.4 309.5-447.5 309.5zM794.1 265.7c-43.6-37.4-87.7-67.1-131-88.1-51.9-25.3-102.8-38.1-151.2-38.1s-99.2 12.8-151.2 38.1c-43.3 21.1-87.4 50.7-131 88.1-45.9 39.4-81.8 79.4-103 104.9 20.8 27.9 56.6 72.5 103.2 117 43.8 41.9 88.1 75 131.5 98.6 51.8 28.1 102.4 42.3 150.4 42.3 47.7 0 97.9-14.1 149.4-41.8 43.3-23.3 87.3-56.2 131-97.7 47.1-44.8 83.6-90.1 104.7-118.4-21-25.6-56.9-65.5-102.8-104.9zM512 594c-116 0-210-94-210-210s94-210 210-210 210 94 210 210-94 210-210 210zM625.1 270.9c-30.2-30.3-70.4-46.9-113.1-46.9s-82.9 16.6-113.1 46.9c-30.3 30.2-46.9 70.4-46.9 113.1 0 42.7 16.6 82.9 46.9 113.1 30.2 30.3 70.4 46.9 113.1 46.9s82.9-16.6 113.1-46.9c30.3-30.2 46.9-70.4 46.9-113.1 0-42.7-16.6-82.9-46.9-113.1z"  horiz-adv-x="1024" />

    
    <glyph glyph-name="knowledge-base" unicode="&#59118;" d="M107 829v-890h810v890h-810zM272 779h190v-229.3l-64.8 49.1-30.2 23-95-72.1v229.3zM157-11v790h65v-330l145 110 145-110v330h355v-790h-710z"  horiz-adv-x="1024" />

    
    <glyph glyph-name="wechat" unicode="&#59119;" d="M374.9 581.9c0-27.6-22.4-50-50-50s-50 22.4-50 50 22.4 50 50 50 50-22.4 50-50zM576.9 531.9c27.6 0 50 22.4 50 50s-22.4 50-50 50-50-22.4-50-50 22.4-50 50-50zM878.8 46.7l11.3-109.5-100 53.5c-38.6-16-81.6-24.9-127.1-24.9-141.1 0-259.4 86-291.4 201.9-27.2 4.8-53.4 12.1-78.2 21.5l-113.4-60.7 12.1 116.6c-80.4 61.4-131.2 151-131.2 250.7 0 185 174.6 335 390 335s390-150 390-335c0-16.6-1.4-32.9-4.1-48.9 76.5-48 126.3-126.9 126.3-216.1 0-71.5-32.1-136.5-84.3-184.1zM311.2 236c17-6.4 34.4-11.6 52.1-15.6-0.2 3.5-0.3 6.9-0.3 10.4 0 146.4 134.3 265 300 265 45.2 0 88.1-8.8 126.5-24.7 0.8 8.1 1.3 16.4 1.3 24.7 0 157.1-152.5 285-340 285s-340-127.9-340-285c0-40.4 9.9-79.5 29.5-116.2 19.3-36.1 46.9-68 82.1-94.8l22.3-17-2.9-27.9-2.4-22.9 50.4 26.9 21.4-7.9zM831 450.4c1.9-1.1 3.8-2.3 5.7-3.5-1.9 1.2-3.8 2.4-5.7 3.5zM825.3 453.8c0.9-0.5 1.9-1.1 2.8-1.6-1 0.5-1.9 1.1-2.8 1.6zM819.5 457c0.6-0.3 1.2-0.7 1.8-1-0.6 0.3-1.2 0.7-1.8 1zM813.7 460.1c0.4-0.2 0.7-0.4 1.1-0.6-0.4 0.2-0.8 0.4-1.1 0.6zM807.8 463v0zM801.8 465.8c0.1 0 0.1-0.1 0.2-0.1 0 0.1-0.1 0.1-0.2 0.1zM795.8 468.5zM370 174.1zM366.1 193.7zM367.2 187.1zM368.5 180.6zM913.1 230.8c0 118.6-112.1 215-250 215s-250-96.4-250-215 112.1-215 250-215c37.8 0 74.1 7.1 107.9 21.1l21.9 9 20.9-11.2 16.9-9.1-1.6 15.8-2.6 25.1 18.6 17c43.8 40.2 68 92.5 68 147.3zM567.1 324.4c-22.1 0-40-17.9-40-40s17.9-40 40-40 40 17.9 40 40-17.9 40-40 40zM759.1 324.4c-22.1 0-40-17.9-40-40s17.9-40 40-40 40 17.9 40 40-17.9 40-40 40z"  horiz-adv-x="1024" />

    
    <glyph glyph-name="update" unicode="&#59120;" d="M512 821l-403.1-423.1h253.1v-270.9h300v270.9h253.1l-403.1 423.1zM612 447.9v-270.9h-200v270.9h-186.4l286.4 300.6 286.4-300.6h-186.4zM362 87h300v-50h-300zM362-3h300v-50h-300z"  horiz-adv-x="1024" />

    
    <glyph glyph-name="self-test" unicode="&#59121;" d="M512 829c-245.8 0-445-199.2-445-445s199.2-445 445-445 445 199.2 445 445-199.2 445-445 445zM791.3 104.7c-36.3-36.3-78.5-64.8-125.6-84.7-48.7-20.6-100.4-31-153.7-31s-105.1 10.4-153.7 31c-47 19.9-89.3 48.4-125.6 84.7-36.3 36.3-64.8 78.5-84.7 125.6-20.6 48.7-31 100.4-31 153.7s10.4 105.1 31 153.7c19.9 47 48.4 89.3 84.7 125.6 36.3 36.3 78.5 64.8 125.6 84.7 48.7 20.6 100.4 31 153.7 31s105.1-10.4 153.7-31c40.9-17.3 78.2-41.1 111.1-70.9l-104.3-104.3c-43.2 36.8-99.3 59.1-160.5 59.1-136.9 0-247.8-111-247.8-247.8s111-247.8 247.8-247.8 247.8 111 247.8 247.8c0 57.6-19.7 110.6-52.6 152.7l104.6 104.6c26.7-31 48.2-65.7 64.2-103.5 20.6-48.7 31-100.4 31-153.7s-10.4-105.1-31-153.7c-19.9-47.3-48.4-89.5-84.7-125.8zM496.3 396.4c-8.8-9.8-8.5-24.9 0.9-34.4 9.4-9.4 24.6-9.8 34.4-0.9l161.3 161.3c11.7-15.3 21.4-31.9 29-49.8 11.9-28.1 17.9-57.9 17.9-88.7s-6-60.6-17.9-88.7c-11.5-27.1-27.9-51.5-48.8-72.4-20.9-20.9-45.3-37.4-72.4-48.8-28.1-11.9-57.9-17.9-88.7-17.9-30.8 0-60.6 6-88.7 17.9-27.1 11.5-51.5 27.9-72.4 48.8-20.9 20.9-37.4 45.3-48.8 72.4-11.9 28.1-17.9 57.9-17.9 88.7s6 60.6 17.9 88.7c11.5 27.1 27.9 51.5 48.8 72.4 20.9 20.9 45.3 37.4 72.4 48.8 28.1 11.9 57.9 17.9 88.7 17.9 30.8 0 60.6-6 88.7-17.9 21-8.9 40.3-20.7 57.7-35.3l-162.1-162.1z"  horiz-adv-x="1024" />

    
    <glyph glyph-name="backup" unicode="&#59122;" d="M224.9 828.9v-119.8h-145.8v-770h720v119.8h145.9v770h-720.1zM749.1-10.9h-620v670h620v-670zM894.9 108.9h-95.9v600.2h-524.1v69.8h620v-670z"  horiz-adv-x="1024" />

    
    <glyph glyph-name="bulletin" unicode="&#59123;" d="M796 605.1l-284 187.8-284-187.8h-164v-630h896v630h-164zM512 732.9l193.3-127.8h-386.6l193.3 127.8zM910 25.1h-796v530h796v-530zM332 260.1h-60v60h60v-60zM542 260.1h-60v60h60v-60zM752 260.1h-60v60h60v-60z"  horiz-adv-x="1024" />

    
    <glyph glyph-name="union" unicode="&#59124;" d="M758.8 319.3l-35.3-35.4 135.9-135.9h-213.6l-161.9 236 161.9 236h213.6l-135.9-135.9 35.3-35.4 198 198-35.3 35.4-162.7 162.6-35.3-35.4 139.3-139.3-243.4-0.1-165.8-241.7-162.3 236.5h-224.1v-50h197.8l158.2-230.7-158.2-230.7h-197.8v-50h224.1l162.3 236.5 165.8-241.8h243.4l-139.3-139.3 35.3-35.4 198 198-35.3 35.4z"  horiz-adv-x="1024" />

    
    <glyph glyph-name="protocol" unicode="&#59125;" d="M64 764v-760h896v760h-896zM910 54h-796v660h796v-660zM351.8 533h-50v50h50v-50zM475.3 533h-50v50h50v-50zM598.7 533h-50v50h50v-50zM722.2 533h-50v50h50v-50zM807 382.2h-590v50h590v-50zM535.4 235.2h-318.4v50h318.4v-50z"  horiz-adv-x="1024" />

    
    <glyph glyph-name="funnel" unicode="&#59126;" d="M837 756.7l-275-339v-375.1l-100 50.4v324.7l-275 339h650M942 806.7h-860l330-406.7v-337.8l200-100.8v438.5l330 406.8z"  horiz-adv-x="1024" />

    
    <glyph glyph-name="reduce" unicode="&#59127;" d="M750.3 697.3c-152.3 152.3-399.2 152.3-551.6 0s-152.3-399.2 0-551.5c146.4-146.4 380.1-152.1 533.3-17.1l172.1-172.1 35.4 35.4-172.1 171.9c135 153.2 129.3 387-17.1 533.4zM789.6 293.5c-17.1-42.1-42.2-80-74.7-112.4-32.5-32.5-70.3-57.6-112.4-74.7-40.7-16.5-83.8-24.9-128-24.9s-87.2 8.4-128 24.9c-42.1 17.1-80 42.2-112.4 74.7s-57.6 70.3-74.7 112.4c-16.5 40.7-24.9 83.8-24.9 128s8.4 87.2 24.9 128c17.1 42.1 42.2 80 74.7 112.4s70.3 57.6 112.4 74.7c40.7 16.5 83.8 24.9 128 24.9s87.2-8.4 128-24.9c42.1-17.1 80-42.2 112.4-74.7 32.5-32.5 57.6-70.3 74.7-112.4 16.5-40.7 24.9-83.8 24.9-128s-8.4-87.3-24.9-128zM671 394h-400v50h400v-50z"  horiz-adv-x="1024" />

    
    <glyph glyph-name="enlarge" unicode="&#59128;" d="M750.3 697.3c-152.3 152.3-399.2 152.3-551.6 0s-152.3-399.2 0-551.5c146.4-146.4 380.1-152.1 533.3-17.1l172.1-172.1 35.4 35.4-172.1 171.9c135 153.2 129.3 387-17.1 533.4zM789.6 293.5c-17.1-42.1-42.2-80-74.7-112.4-32.5-32.5-70.3-57.6-112.4-74.7-40.7-16.5-83.8-24.9-128-24.9s-87.2 8.4-128 24.9c-42.1 17.1-80 42.2-112.4 74.7s-57.6 70.3-74.7 112.4c-16.5 40.7-24.9 83.8-24.9 128s8.4 87.2 24.9 128c17.1 42.1 42.2 80 74.7 112.4s70.3 57.6 112.4 74.7c40.7 16.5 83.8 24.9 128 24.9s87.2-8.4 128-24.9c42.1-17.1 80-42.2 112.4-74.7 32.5-32.5 57.6-70.3 74.7-112.4 16.5-40.7 24.9-83.8 24.9-128s-8.4-87.3-24.9-128zM671 394h-175v-175h-50v175h-175v50h175v175h50v-175h175v-50z"  horiz-adv-x="1024" />

    
    <glyph glyph-name="sponsor" unicode="&#59129;" d="M968.7 288.9l-353.6-353.6-183.8 183.8 35.4 35.4 148.4-148.5 318.2 318.2 35.4-35.3zM311.9 632c0 110.5 89.6 200.1 200.1 200.1s200.1-89.6 200.1-200.1-89.6-200.1-200.1-200.1-200.1 89.6-200.1 200.1zM361.9 632c0-40.1 15.6-77.8 44-106.2s66.1-44 106.2-44c40.1 0 77.8 15.6 106.2 44 28.4 28.4 44 66.1 44 106.2 0 40.1-15.6 77.8-44 106.2-28.4 28.4-66.1 44-106.2 44-40.1 0-77.8-15.6-106.2-44-28.4-28.4-44-66.1-44-106.2zM641.3 351.8c42.8-19 81.3-46.2 114.4-81 5-5.3 9.9-10.7 14.6-16.2l35.5 35.5c-75 86.7-183.3 141.2-303.8 141.2-226.4 0-410-192.5-410-430 0-3.4 0-6.9 0.1-10.3h50c-0.1 3.4-0.1 6.8-0.1 10.3 0 51.6 9.6 101.6 28.6 148.7 18.3 45.3 44.4 86 77.7 120.9 33.1 34.7 71.6 62 114.4 81 44.1 19.6 91 29.5 139.3 29.5s95.2-10 139.3-29.6z"  horiz-adv-x="1024" />

    
    <glyph glyph-name="stop" unicode="&#59130;" d="M512 829c-245.8 0-445-199.2-445-445s199.2-445 445-445 445 199.2 445 445-199.2 445-445 445zM791.3 104.7c-36.3-36.3-78.5-64.8-125.6-84.7-48.7-20.6-100.4-31-153.7-31s-105.1 10.4-153.7 31c-47 19.9-89.3 48.4-125.6 84.7-36.3 36.3-64.8 78.5-84.7 125.6-20.6 48.7-31 100.4-31 153.7s10.4 105.1 31 153.7c19.9 47 48.4 89.3 84.7 125.6 36.3 36.3 78.5 64.8 125.6 84.7 48.7 20.6 100.4 31 153.7 31s105.1-10.4 153.7-31c47-19.9 89.3-48.4 125.6-84.7 36.3-36.3 64.8-78.5 84.7-125.6 20.6-48.7 31-100.4 31-153.7s-10.4-105.1-31-153.7c-19.9-47.1-48.4-89.3-84.7-125.6zM352 224h320v320h-320v-320zM402 494h220v-220h-220v220z"  horiz-adv-x="1024" />

    
    <glyph glyph-name="scan-address" unicode="&#59131;" d="M730 621.2l35.4-35.4-297-297-169.7 169.7 35.4 35.4 134.4-134.4 261.5 261.7zM651.7 118.4v-107.3h182.3v-40.7h-644v40.7h182.3v107.3h-308.6v679.2h896.5v-679.2h-308.5zM611 118.4h-198v-107.3h198v107.3zM910.3 168.4v579.2h-796.6v-579.2h796.6z"  horiz-adv-x="1024" />

    
    <glyph glyph-name="snmp-response" unicode="&#59132;" d="M342.7 376.4h-114.5v-406h-50v406h-114.5v230h50v-180h64.5v180h50v-180h64.5v180h50v-230zM651.7 118.4v-107.3h182.3v-40.7h-551.5v40.7h89.9v107.3h-89.9v50h627.8v92.2l-627.8-0.2v40.6l627.8 0.2v446.4h-796.6v-97.1h-50v147.1h896.5v-679.2h-308.5zM611 118.4h-198v-107.3h198v107.3z"  horiz-adv-x="1024" />

    
    <glyph glyph-name="line" unicode="&#59133;" d="M973.5 697.3c0 80.1-64.9 145-145 145s-145-64.9-145-145c0-57.5 33.5-107.2 82-130.6-1 0.5-2 1-2.9 1.5l-65.6-139c-1.5 0-3 0.1-4.5 0.1-27.4 0-53.1-7.6-74.9-20.8l-153.3 138.6c5.3 15.1 8.2 31.3 8.2 48.2 0 80.1-64.9 145-145 145s-145-64.9-145-145c0-57.1 33.1-106.5 81.1-130.2l-61.4-249.6c-2.2 0.1-4.4 0.2-6.6 0.2-80.1 0-145-64.9-145-145s64.9-145 145-145 145 64.9 145 145c0 60.5-37 112.3-89.6 134l60.7 246.5c5.2-0.6 10.5-0.9 15.9-0.9 44.8 0 84.9 20.3 111.5 52.3l140.7-127.2c-20.1-24.9-32.1-56.5-32.1-91 0-80.1 64.9-145 145-145s145 64.9 145 145c0 60.7-37.3 112.7-90.2 134.3l63.6 134.8c5.8-0.7 11.7-1.1 17.6-1.1 79.9-0.1 144.8 64.8 144.8 144.9zM290.5 70.7c0-52.4-42.6-95-95-95s-95 42.6-95 95 42.6 95 95 95 95-42.6 95-95zM236.3 209.9h0.1c0-0.1 0-0.1-0.1 0zM205 215.4h0.4c-0.1-0.1-0.2 0-0.4 0zM208.3 215.1v0zM211.6 214.8v0zM227.3 212.2zM230.1 211.5c0.1 0 0.2-0.1 0.3-0.1 0 0.1-0.2 0.1-0.3 0.1zM233.2 210.7c0.1 0 0.2-0.1 0.4-0.1-0.2 0.1-0.3 0.1-0.4 0.1zM295.8 453.8c0.1 0 0.1 0 0 0 0.1 0 0.1 0 0 0zM266.2 463.9c0.1 0 0.1-0.1 0.2-0.1 0 0-0.1 0-0.2 0.1zM269.1 462.6c0.1 0 0.1-0.1 0.2-0.1-0.1 0-0.2 0-0.2 0.1zM286.7 456.1zM289.6 455.3c0.1 0 0.2 0 0.3-0.1-0.1 0.1-0.2 0.1-0.3 0.1zM292.7 454.5c0.1 0 0.2 0 0.3-0.1-0.2 0.1-0.3 0.1-0.3 0.1zM327.5 500.3c-52.4 0-95 42.6-95 95s42.6 95 95 95 95-42.6 95-95-42.6-95-95-95zM441 505.2l-0.3-0.3c0.1 0 0.2 0.1 0.3 0.3zM450.3 518.3c-0.1-0.1-0.1-0.2-0.2-0.3 0.1 0.1 0.2 0.2 0.2 0.3zM448.6 515.7c-0.1-0.1-0.2-0.3-0.3-0.4 0.2 0.1 0.3 0.2 0.3 0.4zM446.9 513c-0.1-0.2-0.2-0.3-0.4-0.5 0.1 0.2 0.2 0.4 0.4 0.5zM445 510.4c-0.1-0.2-0.3-0.4-0.4-0.5 0.1 0.1 0.3 0.3 0.4 0.5zM443 507.8c-0.1-0.2-0.2-0.3-0.4-0.5 0.2 0.1 0.3 0.3 0.4 0.5zM615.6 407.3v0zM612.9 405.6c-0.3-0.2-0.7-0.4-1-0.7 0.4 0.2 0.7 0.4 1 0.7zM610.2 403.7c-0.3-0.2-0.7-0.5-1-0.7 0.4 0.3 0.7 0.5 1 0.7zM607.5 401.8c-0.3-0.2-0.6-0.4-0.9-0.7 0.3 0.3 0.6 0.5 0.9 0.7zM604.8 399.8c-0.3-0.2-0.5-0.4-0.8-0.6 0.3 0.2 0.6 0.4 0.8 0.6zM602.2 397.8c-0.2-0.2-0.4-0.4-0.7-0.5 0.3 0.1 0.5 0.3 0.7 0.5zM599.6 395.7c-0.1-0.1-0.3-0.2-0.4-0.4 0.1 0.2 0.3 0.3 0.4 0.4zM581.6 377.8zM787.5 284.3c0-52.4-42.6-95-95-95s-95 42.6-95 95 42.6 95 95 95 95-42.6 95-95zM722.9 426.1v0zM713.1 427.8v0zM716.3 427.4c0.2 0 0.3-0.1 0.5-0.1-0.2 0-0.3 0-0.5 0.1zM719.6 426.8c0.1 0 0.3-0.1 0.4-0.1-0.2 0-0.3 0.1-0.4 0.1zM733.5 697.3c0 52.4 42.6 95 95 95s95-42.6 95-95-42.6-95-95-95-95 42.6-95 95zM807.5 553.8c0.2 0 0.3 0 0.5-0.1-0.2 0.1-0.4 0.1-0.5 0.1zM766.6 566.2v0zM769.8 564.7c0.6-0.2 1.1-0.5 1.7-0.7-0.6 0.2-1.1 0.4-1.7 0.7zM773 563.3c0.5-0.2 1-0.4 1.6-0.6-0.6 0.2-1.1 0.4-1.6 0.6zM776.1 562.1v0zM779.3 560.9c0.4-0.2 0.9-0.3 1.3-0.5-0.4 0.2-0.8 0.3-1.3 0.5zM782.5 559.8c0.4-0.1 0.7-0.2 1.1-0.4-0.3 0.1-0.7 0.2-1.1 0.4zM785.7 558.7c0.1 0 0.1 0 0.2-0.1 0 0.1-0.1 0.1-0.2 0.1zM794.7 556.3c0.1 0 0.2-0.1 0.4-0.1-0.2 0-0.3 0.1-0.4 0.1zM797.7 555.6c0.2 0 0.4-0.1 0.6-0.1-0.2 0-0.4 0.1-0.6 0.1zM800.9 555c0.2 0 0.5-0.1 0.7-0.1-0.3 0-0.5 0-0.7 0.1zM804.1 554.4c0.2 0 0.4-0.1 0.6-0.1-0.2 0-0.4 0-0.6 0.1z"  horiz-adv-x="1024" />

    
    <glyph glyph-name="nav-log-center" unicode="&#59134;" d="M789.2 749v60h-45v-60h-464.4v60h-45v-60h-170.8v-790h896v790h-170.8zM915 4h-806v700h125.8v-75h45v75h464.5v-75h45v75h125.7v-700zM247 513.7h530v-45h-530v45zM247 366.5h530v-45h-530v45zM247 219.3h390v-45h-390v45z"  horiz-adv-x="1024" />

    
    <glyph glyph-name="nav-process-center" unicode="&#59135;" d="M789.5 258.7v147.5h-255v103.1h202.5v300h-450v-300h202.5v-103.1h-255v-147.5h-167.5v-300h380v300h-167.5v102.5h465v-102.5h-167.5v-300h380v300h-167.5zM332 764.3h360v-210h-360v210zM402 3.7h-290v210h290v-210zM912 3.7h-290v210h290v-210z"  horiz-adv-x="1024" />

    
    <glyph glyph-name="nav-account-manage" unicode="&#59136;" d="M860.8 510h-190v45h190v-45zM208.9 122.8h-45.7c23.9 146.7 124.5 257.7 246.2 262.6-67.9 4.3-121.6 60.7-121.6 129.7 0 71.8 58.2 130 130 130s130-58.2 130-130c0-69-53.7-125.4-121.6-129.7 121.7-4.9 222.3-115.9 246.2-262.6h-45.7c-3 16-7 31.7-12.1 47-11.4 34.4-27.7 65.1-48.4 91.3-40.4 51.3-93.1 79.5-148.5 79.5s-108.1-28.2-148.5-79.5c-20.7-26.2-36.9-56.9-48.4-91.3-5-15.2-9-30.9-11.9-47zM417.8 430.2c46.9 0 85 38.1 85 85s-38.1 85-85 85-85-38.1-85-85 38.1-85 85-85zM730.8 356h130v45h-130v-45zM960 809v-850h-896v850h896zM915 764h-806v-760h806v760z"  horiz-adv-x="1024" />

    
    <glyph glyph-name="nav-oper-center" unicode="&#59137;" d="M64 809v-850h896v850h-896zM915 4h-806v760h806v-760zM728.1 670.1h-45v45h45v-45zM838.1 670.1h-45v45h45v-45zM444.2 92l-42.3 15.4 177.9 488.6 42.3-15.4-177.9-488.6zM796.7 344l-117.1 139.6 34.5 28.9 141.4-168.5-141.4-168.5-34.5 28.9 117.1 139.6zM168.5 344l141.5 168.5 34.5-28.9-117.2-139.6 117.1-139.6-34.5-28.9-141.4 168.5z"  horiz-adv-x="1024" />

    
    <glyph glyph-name="nav-event-center" unicode="&#59138;" d="M232 809v-171h-150v-679h860v850h-710zM232 4h-105v589h105v-589zM897 4h-620v760h620v-760zM787 528.7h-420v45h420v-45zM787 361.5h-420v45h420v-45zM477 239.3h310v-45h-310v45z"  horiz-adv-x="1024" />

    
    <glyph glyph-name="nav-system-set" unicode="&#59139;" d="M847.6 313.5l54.1 54.1-31.8 31.8-54.1-54.1c-23.9 18.5-52.8 30.9-84.3 34.9v76.4h-45v-76.4c-31.5-4-60.4-16.5-84.3-34.9l-54.1 54.1-31.8-31.8 54.1-54.1c-18.5-23.9-30.9-52.8-34.9-84.3h-76.5v-45h76.4c4-31.5 16.5-60.4 34.9-84.3l-54.1-54.1 31.8-31.8 54.1 54.1c23.9-18.5 52.8-30.9 84.3-34.9v-76.4h45v76.4c31.5 4 60.4 16.5 84.3 34.9l54.1-54.1 31.8 31.8-54.1 54.1c18.5 23.9 30.9 52.8 34.9 84.3h76.6v45h-76.4c-4.1 31.5-16.5 60.3-35 84.3zM837.9 189.9c-2.9-22.7-11.9-44.3-25.9-62.5l-10.3-13.4-13.4-10.3c-18.2-14.1-39.8-23-62.5-25.9l-16.8-2.2-16.8 2.2c-22.7 2.9-44.3 11.9-62.5 25.9l-13.4 10.3-10.3 13.4c-14.1 18.2-23 39.8-25.9 62.5l-2.2 16.8 2.2 16.8c2.9 22.6 11.9 44.3 25.9 62.5l10.3 13.4 13.4 10.3c18.2 14.1 39.8 23 62.5 25.9l16.8 2.2 16.8-2.2c22.7-2.9 44.3-11.9 62.5-25.9l13.4-10.3 10.3-13.4c14.1-18.2 23-39.8 25.9-62.5l2.2-16.8-2.2-16.8zM960 811.3v-372.2h-45v327.2h-806v-420h318.1v-45h-318.1v-85h318.1v-45h-30v-125h30v-45h-205.1v45h130.1v125h-288.1v640h896z"  horiz-adv-x="1024" />

    
    <glyph glyph-name="nav-asset-monitor" unicode="&#59140;" d="M534.5 729.9v-45h-45v45h45zM196 560.5l-22.5-39 39-22.5 22.5 39-39 22.5zM828 143.7l22.5 39-39 22.5-22.5-39 39-22.5zM173.5 182.6l22.5-39 39 22.5-22.5 39-39-22.5zM850.5 521.5l-22.5 39-39-22.5 22.5-39 39 22.5zM285.2 583.2l302.4-447.4 37.3 25.2-302.4 447.4-37.3-25.2zM512 799.6c-247.1 0-447.5-200.4-447.5-447.5 0-127.3 53.1-242.2 138.4-323.6h69.7c-15.9 11.8-31 24.8-45.2 39-37 37-66 80-86.3 128-21 49.6-31.6 102.3-31.6 156.7s10.6 107.1 31.6 156.7c20.3 47.9 49.3 91 86.3 128s80 66 128 86.3c49.6 21 102.3 31.6 156.7 31.6s107.1-10.6 156.7-31.6c47.9-20.3 91-49.3 128-86.3s66-80 86.3-128c21-49.6 31.6-102.3 31.6-156.7s-10.8-107.2-31.8-156.8c-20.3-47.9-49.3-91-86.3-128-14.2-14.2-29.3-27.2-45.2-39h69.7c85.3 81.5 138.4 196.4 138.4 323.6 0 247.2-200.4 447.6-447.5 447.6z"  horiz-adv-x="1024" />

    
    <glyph glyph-name="nav-asset-manage" unicode="&#59141;" d="M960 689.1c0 66.3-200.6 120-448 120s-448-53.7-448-120v-606.1c2.3-68.6 202-124.1 448-124.1s445.6 55.4 448 124.1v606.1zM138.6 706.3c22 10.7 52.6 20.9 88.6 29.3 78.4 18.4 179.5 28.5 284.8 28.5s206.4-10.1 284.8-28.5c36-8.4 66.6-18.6 88.6-29.3 15.2-7.4 23-13.4 26.9-17.2-3.9-3.7-11.7-9.8-26.9-17.2-22-10.7-52.6-20.9-88.6-29.3-78.4-18.4-179.5-28.5-284.8-28.5s-206.4 10.1-284.8 28.5c-36 8.4-66.6 18.6-88.6 29.3-15.2 7.4-23 13.4-26.9 17.2 3.9 3.7 11.8 9.8 26.9 17.2zM886.7 65.2c-21.6-11.3-52-22-87.9-31-78.6-19.5-180.4-30.3-286.7-30.3s-208.1 10.8-286.7 30.3c-35.9 8.9-66.3 19.6-87.9 31-18.7 9.8-26.3 17.8-28.3 20.9v550.5c72.7-40 225.8-67.5 403-67.5s330.3 27.5 403 67.5v-550.5c-2.2-3.2-9.9-11.1-28.5-20.9zM552 359h79v-45h-96.5v-52h96.5v-45h-96.5v-120.5h-45v120.5h-96.5v45h96.5v52h-96.5v45h79l-78.6 93.7 34.5 28.9 84.1-100.3 84.2 100.3 34.5-28.9-78.7-93.7z"  horiz-adv-x="1024" />

    
    <glyph glyph-name="nav-self-service" unicode="&#59142;" d="M102.4-41.3c9.3 239.5 189.1 430.6 409.6 430.6s400.4-191.1 409.6-430.6h-45c-2 48.3-11.7 95.2-28.8 139.6-18.6 48.4-45.3 91.7-79.1 128.9-33.6 36.9-72.6 65.8-116 85.9-44.6 20.7-91.9 31.2-140.6 31.2s-96.1-10.5-140.6-31.2c-43.4-20.1-82.4-49-116-85.9-33.9-37.2-60.5-80.6-79.1-128.9-17.1-44.4-26.8-91.3-28.8-139.6h-45.2zM302 599.3c0 116 94 210 210 210s210-94 210-210-94-210-210-210-210 94-210 210zM347 599.3c0-44.1 17.2-85.5 48.3-116.7 31.2-31.2 72.6-48.3 116.7-48.3s85.5 17.2 116.7 48.3c31.2 31.2 48.3 72.6 48.3 116.7 0 44.1-17.2 85.5-48.3 116.7-31.2 31.2-72.6 48.3-116.7 48.3s-85.5-17.2-116.7-48.3c-31.1-31.2-48.3-72.6-48.3-116.7z"  horiz-adv-x="1024" />

    
    <glyph glyph-name="minus" unicode="&#59143;" d="M960 409v-50h-896v50h896z"  horiz-adv-x="1024" />

    
    <glyph glyph-name="minus-bold" unicode="&#59144;" d="M960 304h-896v160h896v-160z"  horiz-adv-x="1024" />

    
    <glyph glyph-name="plus-bold" unicode="&#59145;" d="M960 304h-368v-368h-160v368h-368v160h368v368h160v-368h368v-160z"  horiz-adv-x="1024" />

    
    <glyph glyph-name="plus" unicode="&#59146;" d="M960 409v-50h-423v-423h-50v423h-423v50h423v423h50v-423h423z"  horiz-adv-x="1024" />

    
    <glyph glyph-name="frequency" unicode="&#59147;" d="M960 784v-270h-50v220h-796v-220h-50v270h896zM910 34h-796v220h-50v-270h896v270h-50v-220zM421 102.6l139.7 240.7 80.7-101.3 104.6 230.1 51.7-109.5h92.8v50h-61.2l-84.2 178.4-115.4-254-75.4 94.7-120.3-207.2-143.6 440.9-105.6-252.9h-51.4v-50h84.7l66.4 159.2 136.5-419.1z"  horiz-adv-x="1024" />

    
    <glyph glyph-name="delete" unicode="&#59148;" d="M642 760.4h-260v50h260v-50zM942 707.9v-50h-115v-700.3h-630v700.3h-115v50h860zM777 657.9h-530v-650.3h530v650.3zM400.9 511.9h-50v-290h50v290zM542 511.9h-50v-290h50v290zM673.1 511.9h-50v-290h50v290z"  horiz-adv-x="1024" />

    
    <glyph glyph-name="organ" unicode="&#59162;" d="M301.8 600.1h-90v50h90v-50zM497.6 650.1h-90v-50h90v50zM301.8 526.9h-90v-50h90v50zM497.6 526.9h-90v-50h90v50zM301.8 403.6h-90v-50h90v50zM497.6 403.6h-90v-50h90v50zM301.8 280.4h-90v-50h90v50zM497.6 280.4h-90v-50h90v50zM954.3 615.5v-661.5h-884.6v860h570v-198.5h314.6zM589.7 764h-470v-760h470v760zM904.3 565.5h-264.6v-561.5h264.6v561.5zM829.1 462.7h-50v-50h50v50zM829.1 335.1h-50v-50h50v50zM829.1 157.5v50h-50v-50h50z"  horiz-adv-x="1024" />

    
    <glyph glyph-name="account-asset" unicode="&#59163;" d="M839.6 710c-23.5 0-56 1.9-100.8 7.6-132.5 16.9-226.8 114.1-226.8 114.1s-94.3-97.2-226.8-114c-44.8-5.7-77.3-7.6-100.8-7.6-46 0-57.1 7.2-57.1 7.2l1.2-462.5s38.3-154.4 179.3-234.6c141-80.1 204.3-83.9 204.3-83.9s63.3 3.8 204.3 83.9c141 80.1 179.3 234.6 179.3 234.6l1.2 462.5c-0.2 0-11.3-7.3-57.3-7.3zM845.6 261.8c-3.3-10.8-12.5-37.7-30.4-69.8-13.9-24.9-30.2-47.7-48.4-67.6-22.3-24.6-47.6-45-75.2-60.6-65.3-37.1-111.7-56.2-139.2-65.7-20.9-7.2-34.2-10.1-40.4-11.2-6.2 1.1-19.5 4-40.4 11.2-27.5 9.5-73.9 28.6-139.2 65.7-27.1 15.4-51.9 35.3-74 59.3-18 19.6-34.2 41.9-48.1 66.4-18.8 33-28.5 61.3-31.9 72.5l-1 398.2c2.3 0 4.6-0.1 7-0.1 29.4 0 65.5 2.7 107.1 8 98.5 12.5 177.4 63.3 220.5 97.3 43.1-34 122-84.8 220.5-97.3 41.6-5.3 77.7-8 107.1-8 2.4 0 4.7 0 7 0.1l-1-398.4zM549.8 442.8h102.2v-50h-115v-65.9h115v-50h-115v-131h-50v131h-115v50h115v65.9h-115v50h102.2l-92 92 35.4 35.4 94.4-94.4 94.4 94.4 35.4-35.4-92-92z"  horiz-adv-x="1024" />

    
    <glyph glyph-name="manage-author" unicode="&#59164;" d="M811 669h-50v50h50v-50zM701 719h-50v-50h50v50zM957 819v-390h-50v143h-790v-573h358v-50h-408v870h890zM907 769h-790v-147h790v147zM875.2 229h81.8v-50h-81.8c-4.2-29.6-15.9-56.9-33.1-79.8l57.8-57.8-35.3-35.4-57.8 57.8c-22.9-17.2-50.2-28.8-79.8-33.1v-81.7h-50v81.8c-29.6 4.2-56.9 15.9-79.8 33.1l-57.8-57.9-35.4 35.4 57.8 57.8c-17.2 22.9-28.8 50.2-33.1 79.8h-81.7v50h81.8c4.2 29.6 15.9 56.9 33.1 79.8l-57.9 57.8 35.4 35.4 57.8-57.8c22.9 17.2 50.2 28.8 79.8 33.1v81.7h50v-81.8c29.6-4.2 56.9-15.9 79.8-33.1l57.8 57.8 35.4-35.4-57.8-57.8c17.1-22.8 28.8-50.1 33-79.7zM828.3 204l-2.6 17.9c-2.9 20.6-11.1 40.2-23.6 56.9l-10.8 14.5-14.5 10.8c-16.7 12.5-36.3 20.6-56.9 23.6l-17.9 2.6-17.9-2.6c-20.6-2.9-40.2-11.1-56.9-23.6l-14.5-10.8-10.8-14.5c-12.5-16.7-20.6-36.3-23.6-56.9l-2.6-17.9 2.6-17.9c2.9-20.6 11.1-40.2 23.6-56.9l10.8-14.5 14.5-10.8c16.7-12.5 36.3-20.6 56.9-23.6l17.9-2.6 17.9 2.6c20.6 2.9 40.2 11.1 56.9 23.6l14.5 10.8 10.8 14.5c12.5 16.7 20.6 36.3 23.6 56.9l2.6 17.9z"  horiz-adv-x="1024" />

    
    <glyph glyph-name="config-safe" unicode="&#59165;" d="M229.7 812h-50v-233.4h-115v-200h115v-422.6h50v422.6h125v200h-125v233.4zM304.7 528.6v-100h-190v100h190zM555 812h-50v-433.4h-115v-200h115v-222.6h50v222.6h115v200h-115v433.4zM620 328.6v-100h-180v100h180zM844.3 678.6v133.4h-50v-133.4h-115v-200h115v-522.6h50v522.6h115v200h-115zM909.3 528.6h-180v100h180v-100z"  horiz-adv-x="1024" />

    
    <glyph glyph-name="account-isolate" unicode="&#59166;" d="M64 789v-810h896v810h-896zM910 29h-796v710h146.9v-56.9h50v56.9h176.1v-56.9h50v56.9h176.1v-56.9h50v56.9h146.9v-710zM411.1 316.4c67.4 4.9 120.5 61.1 120.5 129.7 0 71.8-58.2 130-130 130s-130-58.2-130-130c0-68.6 53.1-124.8 120.5-129.7-97.4-4.7-178.4-81.4-202.9-184.5h51.7c23 78.3 86.4 134.7 160.7 134.7s137.7-56.4 160.7-134.7h51.7c-24.4 103.1-105.5 179.8-202.9 184.5zM321.6 446.1c0 44.1 35.9 80 80 80s80-35.9 80-80-35.9-80-80-80-80 35.9-80 80zM654.8 480.5h180v-50h-180v50zM714.8 309h120v-50h-120v50z"  horiz-adv-x="1024" />

    
    <glyph glyph-name="position" unicode="&#59167;" d="M512 828c-203.8 0-339-155.2-339-359 0-265.9 339-529 339-529s339 263.1 339 529c0 203.8-135.2 359-339 359z m132.7-689.3C594.3 79.60000000000002 543.3 32.299999999999955 512 5.100000000000023c-31 26.9-81.3 73.6-131.5 132.2-46.7 54.5-83.7 108.2-110 159.7C239 358.5 223 416.4 223 469c0 44.4 7.1 86.4 21.2 124.8 13.6 37.1 33.3 69.8 58.6 97.2 25.3 27.5 55.6 48.8 89.9 63.6C428.9 770.1 469 778 512 778s83.1-7.9 119.2-23.4c34.4-14.7 64.6-36.1 89.9-63.6 25.3-27.4 45-60.1 58.6-97.2C793.9 555.4 801 513.4 801 469c0-52.4-15.8-110-47-171.2-26.2-51.2-63-104.8-109.3-159.1zM512 634c-66.3 0-120-53.7-120-120s53.7-120 120-120 120 53.7 120 120-53.7 120-120 120z m0-190c-38.6 0-70 31.4-70 70s31.4 70 70 70 70-31.4 70-70-31.4-70-70-70z"  horiz-adv-x="1024" />

    
    <glyph glyph-name="aim" unicode="&#59168;" d="M959 409h-52.8c-12.4 198.2-171 356.7-369.2 369.1v52.9h-50v-52.9c-198.2-12.4-356.8-170.9-369.2-369.1h-52.8v-50h52.7c12.4-198.3 171-357 369.3-369.4v-52.6h50v52.6c198.3 12.4 356.9 171.1 369.2 369.4h52.8v50zM829.9 249.6c-17.4-41.1-42.3-78-74-109.7s-68.6-56.6-109.7-74c-34.9-14.7-71.5-23.5-109.3-26.2v167.3h-50v-167.3c-37.8 2.7-74.4 11.5-109.3 26.2-41.1 17.4-78 42.3-109.7 74-31.7 31.7-56.6 68.6-74 109.7-14.8 34.9-23.5 71.6-26.2 109.4h167.3v50h-167.1c2.7 37.7 11.5 74.3 26.2 109.1 17.4 41.1 42.3 78 74 109.7 31.7 31.7 68.6 56.6 109.7 74 34.9 14.7 71.5 23.5 109.3 26.2v-167h50v167c37.8-2.7 74.4-11.5 109.3-26.2 41.1-17.4 78-42.3 109.7-74 31.7-31.7 56.6-68.6 74-109.7 14.7-34.8 23.5-71.4 26.2-109.1h-167.3v-50h167.1c-2.7-37.8-11.4-74.5-26.2-109.4z"  horiz-adv-x="1024" />

    
    <glyph glyph-name="source" unicode="&#59169;" d="M957 384c0-104.9-36.3-201.3-97-277.3l-35.6 35.6c20.9 26.9 38.2 56.4 51.5 88 20.6 48.7 31 100.4 31 153.7s-10.4 105.1-31 153.7c-13.4 31.6-30.6 61.1-51.5 88l35.6 35.6c60.7-76 97-172.4 97-277.3zM234.7 732l35.6-35.6c26.9 20.9 56.4 38.2 88 51.5 48.7 20.6 100.4 31 153.7 31s105.1-10.4 153.7-31c31.6-13.4 61.1-30.6 88-51.5l35.6 35.6c-76 60.7-172.4 97-277.3 97s-201.3-36.3-277.3-97zM199.6 625.7l-35.6 35.6c-60.7-76-97-172.4-97-277.3s36.3-201.3 97-277.3l35.6 35.6c-20.9 26.9-38.2 56.4-51.5 88-20.6 48.7-31 100.4-31 153.7s10.4 105.1 31 153.7c13.3 31.6 30.6 61.1 51.5 88zM665.7 20c-48.7-20.6-100.4-31-153.7-31s-105.1 10.4-153.7 31c-31.6 13.4-61.1 30.6-88 51.5l-35.6-35.5c76.1-60.7 172.5-97 277.3-97s201.3 36.3 277.3 97l-35.6 35.6c-26.9-20.9-56.4-38.2-88-51.6zM512 154c-127 0-230 103-230 230s103 230 230 230 230-103 230-230-103-230-230-230zM384.7 256.7c34-34 79.2-52.7 127.3-52.7s93.3 18.7 127.3 52.7 52.7 79.2 52.7 127.3-18.7 93.3-52.7 127.3-79.2 52.7-127.3 52.7-93.3-18.7-127.3-52.7-52.7-79.2-52.7-127.3 18.7-93.3 52.7-127.3z"  horiz-adv-x="1024" />

    
    <glyph glyph-name="config-audit" unicode="&#59170;" d="M834.2 66.1c77.7 95.4 72.2 236.2-16.8 325.1-47.5 47.5-109.6 71.2-171.8 71.2-62.2 0-124.4-23.7-171.8-71.2-94.9-94.9-94.9-248.8 0-343.7 47.4-47.4 109.6-71.2 171.8-71.2 54.4 0 108.7 18.1 153.3 54.4l99.9-99.9 35.4 35.4-100 99.9zM795.5 97.7l-12.6-15.5-15.5-12.6c-17.3-14.1-36.8-25-57.8-32.4-20.5-7.2-42-10.8-63.8-10.8-51.6 0-100 20.1-136.5 56.5-36.5 36.5-56.5 84.9-56.5 136.5 0 51.6 20.1 100 56.5 136.5 36.5 36.5 84.9 56.5 136.5 56.5 51.6 0 100-20.1 136.5-56.5 34-34 54-79.2 56.3-127.1 2.1-47.8-13.2-94.3-43.1-131.1zM239.9 525h210v-50h-210zM139.9 767.1h156.3v-74.3h50v74.3h123.7v-74.3h50v74.3h123.8v-74.3h50v74.3h156.2v-270.1h50v320.1h-810v-828.1h270.3v50h-220.3zM239.9 332.7h120.3v-50h-120.3z"  horiz-adv-x="1024" />

    
    <glyph glyph-name="asset-expired" unicode="&#59171;" d="M862 759h58v50h-816v-50h58c0.7-172.9 97.3-320 232.2-375-134.9-55.1-231.5-202.1-232.2-375h-58v-50h816v50h-58c-0.7 172.9-97.3 320-232.2 375 134.9 55.1 231.5 202.1 232.2 375zM812 9h-600c0.8 192.2 135.1 348.2 300 348.2s299.2-156.1 300-348.2zM512 410.8c-164.9 0-299.2 156.1-300 348.2h600c-0.8-192.1-135.1-348.2-300-348.2z"  horiz-adv-x="1024" />

    
    <glyph glyph-name="asset-change" unicode="&#59172;" d="M946.7 701.1c-8.7 72.2-200 129.9-434.7 129.9s-426-57.7-434.7-129.9h-0.3v-633.5h0.2c7.5-72.5 199.3-130.6 434.8-130.6s427.3 58.1 434.8 130.6h0.2v633.5h-0.3zM133.3 702.1l0.2 0.2c0.4 0.3 0.8 0.7 1.2 1.1l0.2 0.2c0.4 0.3 0.8 0.7 1.2 1 0.1 0.1 0.2 0.1 0.2 0.2 0.5 0.4 0.9 0.8 1.5 1.2l0.3 0.3c0.5 0.4 1.1 0.8 1.6 1.3 0.6 0.4 1.2 0.9 1.8 1.3 0.1 0.1 0.3 0.2 0.4 0.3 0.6 0.4 1.3 0.9 1.9 1.4 0.1 0.1 0.2 0.2 0.3 0.2 0.6 0.4 1.3 0.9 1.9 1.3 0.1 0.1 0.2 0.2 0.4 0.2 0.7 0.5 1.5 1 2.3 1.5 0.2 0.1 0.4 0.2 0.5 0.3 0.8 0.5 1.7 1 2.6 1.5 20.1 11.9 48.8 23.2 83 32.7 75.6 21.1 174 32.6 277 32.6s201.3-11.6 277-32.6c34.2-9.5 62.9-20.8 83-32.7 15.9-9.4 22-16.5 24.2-19.6-2.2-3.1-8.4-10.2-24.2-19.6-20.1-11.9-48.8-23.2-83-32.7-75.5-21.1-173.8-32.7-276.8-32.7-92 0-187.2 13.9-267.9 39-33.5 10.5-63.4 22.6-86.4 35-12.2 6.6-20.3 12.1-25.4 16.1 0.3 0.4 0.7 0.7 1 1zM897 73.3c-1.1-2-6.3-9.8-25-20.9-20.1-11.9-48.8-23.2-83-32.7-75.7-21.1-174-32.7-277-32.7s-201.3 11.6-276.9 32.6c-34.2 9.5-62.9 20.8-83 32.7-18.7 11.1-24 19-25 20.9v571.7c0.8-0.5 1.6-0.9 2.5-1.4 2.2-1.2 4.5-2.5 6.9-3.7 0.8-0.4 1.5-0.8 2.3-1.2 2.2-1.2 4.5-2.3 6.8-3.5 0.9-0.5 1.9-0.9 2.9-1.4 4.5-2.2 9.2-4.4 14.1-6.5 3.4-1.5 7-3 10.6-4.5 5.5-2.3 11.1-4.5 17-6.8 2.3-0.9 4.7-1.8 7.1-2.7s4.8-1.8 7.3-2.6c3.7-1.3 7.4-2.6 11.3-3.9 1.3-0.4 2.6-0.8 3.8-1.3 2.3-0.7 4.6-1.5 6.9-2.2 1.6-0.5 3.3-1 4.9-1.5 1.3-0.4 2.7-0.8 4-1.2l8.1-2.4c1.4-0.4 2.7-0.8 4.1-1.2 2.8-0.8 5.6-1.6 8.4-2.3 1.7-0.5 3.4-0.9 5.1-1.4 4-1.1 8-2.1 12.1-3.1 2.9-0.7 5.9-1.5 8.8-2.2 2.6-0.6 5.3-1.3 7.9-1.9 0.7-0.2 1.4-0.3 2.1-0.5l8.1-1.8c3.1-0.7 6.1-1.3 9.2-2 1.6-0.3 3.1-0.6 4.7-1 4.7-1 9.4-1.9 14.2-2.8l4.8-0.9c4.8-0.9 9.7-1.7 14.6-2.5 1.6-0.3 3.3-0.5 4.9-0.8 4.9-0.8 9.9-1.6 14.9-2.3 1.7-0.2 3.4-0.5 5-0.7 3.1-0.4 6.3-0.9 9.5-1.3 1.9-0.3 3.9-0.5 5.8-0.7 3.2-0.4 6.5-0.8 9.8-1.2 7.1-0.8 14.3-1.6 21.5-2.2 14.1-1.3 28.4-2.3 43-3.1 3.6-0.2 7.3-0.3 11-0.5 3.7-0.1 7.4-0.3 11-0.4s7.4-0.2 11.1-0.2c5.6-0.1 11.2-0.1 16.8-0.1 167.1 0 312.1 29.2 385 72.1v-559.8zM332 247.3h360v-50l-141.4-141.4-35.4 35.4 106.1 106.1h-289.3v49.9zM402.7 370.7h289.3v-50h-360v50l141.4 141.4 35.4-35.4-106.1-106z"  horiz-adv-x="1024" />

    
    <glyph glyph-name="roadblock" unicode="&#59173;" d="M870.8-1.6l-358.2 821.2-359.3-821.2h-86.3v-50h890v50h-86.2zM648.7 382.5l-365-210.8 103.6 236.7 199.9 115.4 61.5-141.3zM567 569.9l-145.9-84.3 91.5 209.1 54.4-124.8zM207.8-1.6l42 96.1 419 241.9 72.2-165.4-299-172.6h-234.2zM542-1.6l219.1 126.5 55.2-126.5h-274.3z"  horiz-adv-x="1024" />

    
    <glyph glyph-name="tag2" unicode="&#59174;" d="M910.5 782.5l-360.1 40.4-477.3-477.3 400.5-400.5 477.2 477.2-40.3 360.2zM473.6 15.8l-329.8 329.8 424.9 424.9 296.6-33.2 33.2-296.6-424.9-424.9zM716.6 623.9l35.4-35.4-35.4-35.4-35.4 35.4 35.4 35.4z"  horiz-adv-x="1024" />

    
    <glyph glyph-name="inspection" unicode="&#59175;" d="M851.1 251.4v445.4h-180v139.8h-320v-139.8h-180v-445.4h-107.2v-320h320v135.4h256.1v-135.4h320v320h-108.9zM401.1 786.6h220v-220h-220v220zM333.9-18.6h-220v220h220v-220zM640.1 116.8h-256.2v134.6h-162.8v395.4h130v-130.2h320v130.2h130v-395.4h-161v-134.6zM910.1-18.6h-220v220h220v-220z"  horiz-adv-x="1024" />

    
    <glyph glyph-name="trophy" unicode="&#59176;" d="M845 706.3c-1 50.3-3 84.7-3 84.7h-660s-2.4-34.3-3.7-84.7l-104.6-0.4 39.7-301.4 87.1-17.9c7.8-29 18.1-52.1 31.5-65.6 60.3-60.3 198.3-124.4 255-149.3v-144.6h-165v-50h380v50h-165v144.7c57.2 25.5 197.3 91.4 255 149.1 13 13 22.9 36.1 30.5 65.4l88.1 18.1 39.7 301.4-105.3 0.5zM158.6 446.2l-28.4 209.9 47.3 0.2c-0.5-67.6 1.8-149.2 12.1-216.5l-31 6.4zM794.5 584.3c-1.9-60.4-6.3-111.2-13.1-150.8-10.5-61.5-23.4-75.8-24.8-77.2-25.9-25.9-80.6-60.6-154.1-98-36.8-18.7-70.6-34.1-90.6-43-19.8 8.6-52.8 23.4-89.2 41.7-74 37.3-127.7 71.6-155.4 99.2-3.5 3.5-34.1 39.4-39.2 229.1-1.6 59.9-0.2 117.3 1.4 155.5h564.6c1.2-38.4 2.3-96.3 0.4-156.5zM865.4 446.2l-32.4-6.6c10 67.2 12.6 149 12.5 216.8l48.2-0.2-28.3-210z"  horiz-adv-x="1024" />

    
    <glyph glyph-name="briefcase" unicode="&#59177;" d="M742 648.3v161.4h-460v-161.5h-218v-690h896v690h-218zM332 759.7h360v-111.5h-360v111.5zM910 598.3v-157.4h-318v67.4h-160v-67.4h-318v157.4h796zM542 458.2v-130h-60v130h60zM114 8.3v382.5h318v-112.6h160v112.6h318v-382.6h-796z"  horiz-adv-x="1024" />

    
    <glyph glyph-name="mib" unicode="&#59178;" d="M754.4 388.5l-210-420h420l-210 420z m0-111.8l129.1-258.2H625.3l129.1 258.2zM960 812H64v-340h896V812z m-50-290H114V762h796v-240z m-574.5 95h-150v50h150v-50zM114 6h350.1v-50H64V426h563.6v-50H114v-370z m303 231.2h57.1v-50H417v50z m-231.5-50v50h150v-50h-150z"  horiz-adv-x="1024" />

    
    <glyph glyph-name="cabinet" unicode="&#59179;" d="M157 832v-896h710v896h-710zM817 782v-97h-610v97h610zM817 635v-96.7h-610v96.7h610zM207-14v502.3h610v-502.3h-610zM620.6 338.3h120v-50h-120v50z"  horiz-adv-x="1024" />

    
    <glyph glyph-name="config-ip" unicode="&#59180;" d="M588.9 18.4v49.2h-51.9v102h375.1v630h-800v-630h374.9v-102.1h-51.6v-49.2h-371.4v-50h896v50h-371.1zM162.1 219.6v530h700v-530h-700zM367.1 630h36v-272h-36v272zM666.9 614.7c-9 6.2-20.2 10.5-33.6 12.7-9.5 1.7-23.3 2.6-41.4 2.6h-102.6v-272h36v110.6h69.8c38.5 0 65.1 8 79.8 24 14.7 16 22.1 35.6 22.1 58.7 0 13.5-2.8 25.9-8.3 37.1-5.5 11.3-12.8 20.1-21.8 26.3zM645.2 513.7c-9.8-8.7-26.3-13-49.5-13h-70.3v97.2h69.6c16.3 0 27.5-0.8 33.6-2.4 9.4-2.6 17-7.9 22.7-16 5.8-8.1 8.6-17.8 8.6-29.2-0.1-15.8-5-28-14.7-36.6z"  horiz-adv-x="1024" />

    
    <glyph glyph-name="week" unicode="&#59181;" d="M752.3 769.9v48.2h-50v-48.2h-380.6v48.2h-50v-48.2h-207.7v-820h896v820h-207.7zM910-10.1h-796v730h157.7v-51.8h50v51.8h380.5v-51.8h50v51.8h157.8v-730zM396.2 500.6h231.7v-34.2c-22.8-24.3-45.4-56.5-67.7-96.7-22.4-40.2-39.7-81.5-51.9-124-8.8-29.9-14.4-62.7-16.8-98.4h-45.2c0.5 28.2 6 62.2 16.6 102.1s25.8 78.3 45.5 115.4c19.8 37 40.8 68.2 63.1 93.6h-175.3v42.2z"  horiz-adv-x="1024" />

    
    <glyph glyph-name="month" unicode="&#59182;" d="M752.3 769.9v48.2h-50v-48.2h-380.6v48.2h-50v-48.2h-207.7v-820h896v820h-207.7zM910-10.1h-796v730h157.7v-51.8h50v51.8h380.5v-51.8h50v51.8h157.8v-730zM473.2 330.9c11.7-15.4 17.6-34.6 17.6-57.7 0-31.3-11.4-57.7-34.2-79.5-22.8-21.7-51.6-32.6-86.4-32.6-31.4 0-57.5 9.4-78.2 28.1-20.8 18.7-32.6 43-35.5 72.8l43.9 5.9c5-24.9 13.6-42.8 25.8-53.8 12.1-11 26.9-16.5 44.3-16.5 20.7 0 38.1 7.2 52.4 21.5 14.2 14.3 21.4 32.1 21.4 53.2 0 20.2-6.6 36.8-19.8 49.9-13.2 13.1-29.9 19.7-50.3 19.7-8.3 0-18.6-1.6-31-4.9l4.9 38.6c2.9-0.3 5.3-0.5 7.1-0.5 18.7 0 35.6 4.9 50.5 14.6 15 9.8 22.5 24.8 22.5 45.2 0 16.1-5.5 29.5-16.4 40-10.9 10.6-25 15.9-42.2 15.9-17.1 0-31.3-5.4-42.7-16.1-11.4-10.7-18.7-26.9-22-48.3l-43.9 7.8c5.4 29.5 17.6 52.3 36.6 68.5s42.7 24.3 71 24.3c19.5 0 37.5-4.2 54-12.6 16.4-8.4 29-19.8 37.7-34.3 8.7-14.5 13.1-29.9 13.1-46.1 0-15.5-4.2-29.5-12.5-42.2s-20.6-22.8-36.9-30.3c21-5 37.5-15.2 49.2-30.6zM701.5 515.3c-14.5 7.7-31.3 11.6-50.5 11.6-26 0-47.6-7-64.8-21-17.2-14-30.1-33.9-38.8-59.7-8.7-25.8-13.1-59.9-13.1-102.2 0-67.2 11.8-115.7 35.4-145.5 19.7-24.7 46.8-37.1 81.3-37.1 26.2 0 47.9 7 65.1 21.1 17.2 14.1 30.1 34 38.7 59.8 8.6 25.8 12.9 59.7 12.9 101.7 0 35.5-2.7 63.7-8.1 84.6-5.4 20.9-12.8 38.7-22.2 53.2-9.5 14.6-21.5 25.7-35.9 33.5zM701.8 226.8c-13.8-19.5-30.7-29.3-50.9-29.3s-37.2 9.7-50.9 29.2c-13.8 19.4-20.6 58.6-20.6 117.3 0 58.8 7.6 99 22.7 120.8 12 17.1 28.2 25.6 48.3 25.6 20.5 0 37.6-9.7 51.4-29.1 13.8-19.4 20.6-58.5 20.6-117.4 0-58.5-6.8-97.6-20.6-117.1z"  horiz-adv-x="1024" />

    
    <glyph glyph-name="day" unicode="&#59183;" d="M752.3 769.9v48.2h-50v-48.2h-380.6v48.2h-50v-48.2h-207.7v-820h896v820h-207.7zM910-10.1h-796v730h157.7v-51.8h50v51.8h380.5v-51.8h50v51.8h157.8v-730zM512.6 503.7h28.4v-359.4h-44v280c-9.4-9-21.4-17.9-36-26.9v47.9c4.3 3.4 8.5 6.8 12.5 10.4 18.5 16.6 31.5 32.5 39.1 48z"  horiz-adv-x="1024" />

    
    <glyph glyph-name="set-alarm" unicode="&#59184;" d="M954 170.1v50h-81.8c-4.2 29.6-15.9 56.9-33.1 79.8l57.8 57.8-35.4 35.4-57.8-57.8c-22.9 17.2-50.2 28.8-79.8 33.1v81.8h-50v-81.8c-29.6-4.2-56.9-15.9-79.8-33.1l-57.8 57.8-35.3-35.3 57.8-57.8c-17.2-22.9-28.8-50.2-33.1-79.8h-81.7v-50h81.8c4.2-29.6 15.9-56.9 33.1-79.8l-57.9-57.9 35.4-35.4 57.8 57.8c22.9-17.2 50.2-28.8 79.8-33.1v-81.8h50v81.8c29.6 4.2 56.9 15.9 79.8 33.1l57.8-57.8 35.4 35.4-57.8 57.8c17.2 22.9 28.8 50.2 33.1 79.8h81.7zM822.7 177.2c-2.9-20.6-11.1-40.2-23.6-56.9l-10.8-14.5-14.5-10.8c-16.7-12.5-36.3-20.6-56.9-23.6l-17.9-2.6-17.9 2.6c-20.6 2.9-40.2 11.1-56.9 23.6l-14.5 10.8-10.8 14.5c-12.5 16.7-20.6 36.3-23.6 56.9l-2.6 17.9 2.6 17.9c2.9 20.6 11.1 40.2 23.6 56.9l10.8 14.5 14.5 10.8c16.7 12.5 36.3 20.6 56.9 23.6l17.9 2.6 17.9-2.6c20.6-2.9 40.2-11.1 56.9-23.6l14.5-10.8 10.8-14.5c12.5-16.7 20.6-36.3 23.6-56.9l2.6-17.9-2.6-17.9zM474.1 747.8c-23.9-0.9-47-4.5-69.2-10.7 16.8 42.7 58.4 72.9 107.1 72.9 48.4 0 89.9-29.9 106.8-72.3-22.1 6-45.3 9.5-69.1 10.2-10.7 7.6-23.7 12.1-37.8 12.1-14 0-27.1-4.5-37.8-12.2zM450 34h-368v50h103v344c0 165 135 300 300 300h56c145.2 0 267.1-104.5 294.3-242h-51.2c-3.2 13.3-7.5 26.3-12.8 38.9-12.6 29.8-30.7 56.5-53.8 79.6s-49.8 41.1-79.6 53.8c-30.7 13.1-63.3 19.7-96.9 19.7h-56c-33.6 0-66.2-6.6-96.9-19.7-29.8-12.6-56.5-30.7-79.6-53.8-23-23-41.1-49.8-53.8-79.6-13.1-30.7-19.7-63.3-19.7-96.9v-344h215v-50zM450-42h-68v50h68v-50z"  horiz-adv-x="1024" />

    
    <glyph glyph-name="batch-add" unicode="&#59192;" d="M224.9 828.9v-119.8h-145.8v-770h720v119.8h145.9v770h-720.1zM749.1-10.9h-620v670h620v-670zM894.9 108.9h-95.9v600.2h-524.1v69.8h620v-670zM414 299h-150v50h150v150h50v-150h150v-50h-150v-150h-50v150z"  horiz-adv-x="1024" />

    
    <glyph glyph-name="batch-reduce" unicode="&#59193;" d="M224.9 828.9v-119.8h-145.8v-770h720v119.8h145.9v770h-720.1zM749.1-10.9h-620v670h620v-670zM894.9 108.9h-95.9v600.2h-524.1v69.8h620v-670zM264 299v50h350v-50h-350z"  horiz-adv-x="1024" />

    
    <glyph glyph-name="batch-del" unicode="&#59194;" d="M224.9 828.9v-119.8h-145.8v-770h720v119.8h145.9v770h-720.1zM749.1-10.9h-620v670h620v-670zM894.9 108.9h-95.9v600.2h-524.1v69.8h620v-670zM439 288.6l-106.1-106-35.4 35.4 106.1 106-106 106.1 35.4 35.4 106-106.1 106.1 106.1 35.4-35.4-106.1-106.1 106.1-106.1-35.4-35.4-106.1 106.1z"  horiz-adv-x="1024" />

    
    <glyph glyph-name="batch-import" unicode="&#59195;" d="M224.9 828.9v-119.8h-145.8v-770h720v119.8h145.9v770h-720.1zM749.1-10.9h-620v670h620v-670zM894.9 108.9h-95.9v600.2h-524.1v69.8h620v-670zM407.3 225.1v279h50v-279l116.4 116.4 35.4-35.4-176.8-176.7-176.8 176.8 35.4 35.4 116.4-116.5z"  horiz-adv-x="1024" />

    
    <glyph glyph-name="batch-export" unicode="&#59196;" d="M224.9 828.9v-119.8h-145.8v-770h720v119.8h145.9v770h-720.1zM749.1-10.9h-620v670h620v-670zM894.9 108.9h-95.9v600.2h-524.1v69.8h620v-670zM290.9 292l-35.4 35.4 176.8 176.8 176.8-176.8-35.4-35.4-116.4 116.4v-279h-50v279l-116.4-116.4z"  horiz-adv-x="1024" />

    
    <glyph glyph-name="flag" unicode="&#59197;" d="M806.1 673.1c-59 0-145.5 19.8-262 94.7-75.5 48.5-149.1 64.4-213.1 64.4-66.6 0-123-17.2-160.6-33v32.6h-50v-896h50v297.3c44.9 24.3 116.1 53.8 196.7 53.8 56.4 0 117.3-14.5 177.1-55.2 111.9-76.4 197.6-96.8 257.2-96.8 68.3 0 102.4 26.8 102.4 26.8v536.3c-0.1 0-31.5-24.9-97.7-24.9zM853.7 192.6c-12-4-29.4-7.7-52.4-7.7-28.5 0-59.7 5.7-92.8 17.1-42.7 14.6-88.5 38.5-136.2 71-62.2 42.4-131.2 63.9-205.3 63.9-77.6 0-146.7-23.8-196.6-47.7v455.1c8.1 4 18.3 8.6 30.2 13.1 29.5 11.3 76.1 24.8 130.5 24.8 65.1 0 127.7-19 186.1-56.5 105.9-68.1 203.2-102.6 289-102.6 16.6 0 32.5 1.3 47.6 3.9v-434.4z"  horiz-adv-x="1024" />

    
    <glyph glyph-name="oper-apply" unicode="&#59198;" d="M918.5 250l35.4-35.4-275.8-275.7-148.5 148.5 35.4 35.4 113.1-113.1 240.4 240.3zM64 784v-800h447v50h-397v700h796v-417h50v467h-896zM311.1 553.7l-141.5-168.5 141.4-168.5 38.3 32.1-114.4 136.3 114.5 136.4-38.3 32.2zM575.7 632.2l-174.4-479.3 47-17.1 174.4 479.2-47 17.2zM713 553.5l-38.3-32.1 114.5-136.4-114.5-136.4 38.3-32.1 141.4 168.5-141.4 168.5z"  horiz-adv-x="1024" />

    
    <glyph glyph-name="business-server" unicode="&#59199;" d="M957 304v160l-129.6 17.5c-6.1 19.7-14 38.6-23.5 56.5l79.3 104.1-113.1 113.1-104.1-79.3c-17.9 9.5-36.8 17.4-56.6 23.5l-17.4 129.6h-160l-17.5-129.6c-19.7-6.1-38.6-14-56.5-23.5l-104.1 79.3-113.1-113.1 79.3-104.1c-9.5-17.9-17.4-36.8-23.5-56.5l-129.6-17.5v-160l129.6-17.5c6.1-19.7 14-38.6 23.5-56.6l-79.3-104.1 113.1-113.1 104.1 79.4c17.9-9.5 36.8-17.4 56.5-23.5l17.5-129.6h160l17.5 129.6c19.7 6.1 38.6 14 56.6 23.5l104.1-79.3 113.1 113.1-79.4 104.1c9.5 17.9 17.4 36.8 23.5 56.6l129.6 17.4zM789 331.8l-9.4-30.5c-5.1-16.4-11.8-32.6-19.9-47.9l-14.9-28.3 19.4-25.4 52.8-69.3-51.4-51.4-94.7 72.2-28.3-14.9c-15.4-8.1-31.5-14.8-47.9-19.9l-30.5-9.4-4.3-31.7-11.6-86.3h-72.6l-11.6 86.3-4.3 31.7-30.5 9.4c-16.4 5.1-32.6 11.8-47.9 19.9l-28.3 14.9-25.4-19.4-69.3-52.8-51.4 51.4 72.2 94.7-14.9 28.3c-8.1 15.4-14.8 31.5-19.9 47.9l-9.4 30.5-118 15.9v72.6l118 15.9 9.4 30.5c5.1 16.5 11.8 32.6 19.9 47.9l14.9 28.3-19.4 25.4-52.8 69.3 51.3 51.3 94.7-72.2 28.3 14.9c15.4 8.1 31.5 14.8 47.9 19.9l30.5 9.4 4.3 31.7 11.6 86.3h72.6l11.6-86.3 4.3-31.7 30.5-9.4c16.5-5.1 32.6-11.8 47.9-19.9l28.3-14.9 25.4 19.4 69.3 52.8 51.3-51.3-72.2-94.7 14.9-28.3c8.1-15.4 14.8-31.5 19.9-47.9l9.4-30.5 118-15.9v-72.6l-117.8-15.9zM512 524c-77.3 0-140-62.7-140-140s62.7-140 140-140 140 62.7 140 140-62.7 140-140 140zM512 294c-49.6 0-90 40.4-90 90s40.4 90 90 90 90-40.4 90-90-40.4-90-90-90z"  horiz-adv-x="1024" />

    
    <glyph glyph-name="oper-equip" unicode="&#59200;" d="M64 784v-800h896v800h-896zM910 34h-796v700h796v-700zM789.1 385.1l-114.5 136.4 38.3 32.1 141.4-168.5-141.4-168.5-38.3 32.1 114.5 136.4zM169.6 385.1l141.4 168.5 38.3-32.1-114.4-136.4 114.4-136.4-38.3-32.1-141.4 168.5zM448.3 135.8l-47 17.1 174.4 479.2 47-17.1-174.4-479.2z"  horiz-adv-x="1024" />

    
    <glyph glyph-name="log" unicode="&#59201;" d="M752.3 724.9V823.1h-50v-98.2H321.7V823.1h-50v-98.2H64v-780h896v780H752.3z m157.7-730H114v680h157.7v-51.8h50v51.8h380.5v-51.8h50v51.8H910v-680zM244.8 453.1h53.3v-50h-53.3v50z m0-204.6h53.3v-50h-53.3v50z m133.3 0h426.7v-50H378.1v50z m0 204.6h426.7v-50H378.1v50z"  horiz-adv-x="1024" />

    
    <glyph glyph-name="download" unicode="&#59202;" d="M915.1 370.1h-253.1v270.9h-300v-270.8h-253.1l403.1-423.2 403.1 423.1zM662 320.1h136.4l-286.4-300.6-286.4 300.6h186.4v270.9h200v-270.8h50zM362 731h300v-50h-300zM362 821h300v-50h-300z"  horiz-adv-x="1024" />

    
    <glyph glyph-name="batch-execution" unicode="&#59203;" d="M224.9 828.9v-119.8h-145.8v-770h720v119.8h145.9v770h-720.1zM749.1-10.9h-620v670h620v-670zM894.9 108.9h-95.9v600.2h-524.1v69.8h620v-670zM354.5 546.3l226.3-226.3-226.3-226.3-35.4 35.4 191 190.9-190.9 190.9 35.3 35.4z"  horiz-adv-x="1024" />

    
    <glyph glyph-name="assist" unicode="&#59204;" d="M408.2 173h50v-50h-50v50zM488.2 123h50v50h-50v-50zM753.1 353.1l-35.4-35.4 144.8-144.7h-284.3v-50h284.3l-144.8-144.7 35.4-35.4 205.1 205.1-205.1 205.1zM321.9 604.4c0 110.6 89.6 200.2 200.1 200.2s200.1-89.6 200.1-200.1-89.6-200.2-200.1-200.2-200.1 89.6-200.1 200.1zM371.9 604.4c0-40.1 15.6-77.8 44-106.2s66.1-44 106.2-44c40.1 0 77.8 15.6 106.2 44 28.4 28.4 44 66.1 44 106.2 0 40.1-15.6 77.8-44 106.2-28.4 28.4-66.1 44-106.2 44-40.1 0-77.8-15.6-106.2-44-28.4-28.4-44-66.1-44-106.2zM512 291.2c-52.5 0-103.4 9.2-151.3 27.3 4 1.9 8 3.8 12 5.6 44.1 19.6 91 29.5 139.3 29.5 42.1 0 83.1-7.5 122.1-22.4l39.5 37.7c-49.6 22.4-104.2 34.8-161.6 34.8-226.4 0-410-192.5-410-430 0-3.4 0-6.9 0.1-10.3h50c-0.1 3.4-0.1 6.8-0.1 10.3 0 51.6 9.6 101.6 28.6 148.7 18.3 45.3 44.4 86 77.7 120.9 15.4 16.2 32 30.7 49.6 43.5 60.9-29.1 130.4-45.5 204.1-45.5 9.7 0 19.2 0.3 28.7 0.8l61.3 58.5c-29.2-6.2-59.3-9.4-90-9.4z"  horiz-adv-x="1024" />

    
    <glyph glyph-name="announce" unicode="&#59205;" d="M784.6 524v300.6l-507.1-250.6-147.3 20v-420l147.3 20 507-250.6v300.6h109.2v280h-109.1zM734.6 23.9l-448.6 221.7-15.2-2.1-90.6-12.3v305.6l105.8-14.4 13.7 6.8 434.9 214.9v-720.2zM843.7 294h-59.2v180h59.2v-180z"  horiz-adv-x="1024" />

    
    <glyph glyph-name="special-oper" unicode="&#59206;" d="M64 784v-800h896v800h-896zM910 34h-796v700h796v-700zM747.2 384l-134.3 134.4 35.4 35.4 169.7-169.8-169.7-169.7-35.4 35.4 134.3 134.3zM548.8 384l-134.3 134.4 35.4 35.4 169.6-169.8-169.7-169.7-35.4 35.4 134.4 134.3zM216 249.6l134.4 134.4-134.4 134.4 35.4 35.4 169.7-169.8-169.7-169.7-35.4 35.3z"  horiz-adv-x="1024" />

    
    <glyph glyph-name="system-statu" unicode="&#59207;" d="M300.8 483.5l-61.4-140.8h-122.4v50h89.6l102.6 235.2 112.3-369.6 104.2 192.5 104.6-88.8 111.2 235.7 74.8-196.9h90.7v-50h-125.2l-45.2 119.1-88.8-188.3-107.4 91.2-131.9-243.7-107.7 354.4zM67 804v-303.2h50v253.2h790v-253.2h50v303.2h-890zM907 14h-790v261.8h-50v-311.8h890v311.8h-50v-261.8z"  horiz-adv-x="1024" />

    
    <glyph glyph-name="early-warn" unicode="&#59208;" d="M852 3.2v571.6c0 132-108 240-240 240h-200c-132 0-240-108-240-240v-571.7h-108v-50h896v50h-108zM802 3.2h-580v571.6c0 25.5 5 50.3 15 73.6 9.6 22.6 23.4 43 40.9 60.5s37.9 31.3 60.5 40.9c23.4 9.9 48.1 15 73.6 15h200c25.5 0 50.3-5 73.6-15 22.6-9.6 43-23.4 60.5-40.9s31.3-37.9 40.9-60.5c9.9-23.4 15-48.1 15-73.6v-571.6zM552.9 662.1l-206.9-362.7h115.1v-203.5l216.9 359.3h-125.1v206.9zM589.4 405.2l-78.3-129.7v73.9h-79.1l70.8 124.1v-68.3h86.6z"  horiz-adv-x="1024" />

    
    <glyph glyph-name="delegate" unicode="&#59209;" d="M502.1 738v76h-435.1v-860h890v784h-454.9zM907 4h-790v760h335.1v-76h454.9v-684zM237 369h50v-50h-50v50zM317 369h50v-50h-50v50zM787 344l-205.1-205.1-35.4 35.4 144.8 144.7h-284.3v50h284.3l-144.7 144.7 35.4 35.4 205-205.1z"  horiz-adv-x="1024" />

    
    <glyph glyph-name="receive" unicode="&#59210;" d="M957 784v-800h-890v800h215v-50h-165v-700h790v700h-165v50h215zM717.1 339.1l-35.4 35.4-144.7-144.8v404.3h-50v-404.3l-144.7 144.7-35.4-35.4 205.1-205 205.1 205.1z"  horiz-adv-x="1024" />

    
    <glyph glyph-name="order-track" unicode="&#59211;" d="M167 709.9h165v-61.8h360v61.8h165v-391.9h50v441.9h-215v68.2h-360v-68.2h-215v-820h468.9v50h-418.9v720zM382 778.1h260v-80h-260v80zM287 370.2h320v-50h-320v50zM737 470.9h-450v50h450v-50zM907 130.8l-190.9-190.9-35.4 35.4 130.6 130.6h-356.2v50h356.2l-130.6 130.5 35.4 35.4 190.9-191z"  horiz-adv-x="1024" />

    
    <glyph glyph-name="query-knowledge" unicode="&#59212;" d="M857 72.9c77.7 95.4 72.2 236.2-16.8 325.1-47.5 47.5-109.6 71.2-171.8 71.2-62.2 0-124.4-23.7-171.8-71.2-94.9-94.9-94.9-248.8 0-343.7 47.4-47.4 109.6-71.2 171.8-71.2 54.4 0 108.7 18.1 153.3 54.4l99.9-99.9 35.4 35.4-100 99.9zM818.3 104.5l-12.6-15.5-15.5-12.6c-17.3-14.1-36.8-25-57.8-32.4-20.5-7.2-42-10.8-63.8-10.8-51.6 0-100 20.1-136.5 56.5-36.5 36.5-56.5 84.9-56.5 136.5 0 51.6 20.1 100 56.5 136.5 36.5 36.5 84.9 56.5 136.5 56.5 51.6 0 100-20.1 136.5-56.5 34-34 54-79.2 56.3-127.1 2.1-47.8-13.2-94.3-43.1-131.1zM449.9-11h-292.9v790h65v-330l145 110 145-110v330h355v-308.4h50v358.4h-810v-890h342.9v50zM272 779h190v-229.3l-64.8 49.1-30.2 23-95-72.1v229.3z"  horiz-adv-x="1024" />

    
    <glyph glyph-name="set-process" unicode="&#59213;" d="M945.9 174.1v50h-81.8c-4.2 29.6-15.9 56.9-33.1 79.8l57.8 57.8-35.4 35.4-57.8-57.8c-22.9 17.2-50.2 28.8-79.8 33.1v81.8h-50v-81.8c-29.6-4.2-56.9-15.9-79.8-33.1l-57.8 57.8-35.4-35.4 57.8-57.8c-17.2-22.9-28.8-50.2-33.1-79.8h-81.8v-50h81.8c4.2-29.6 15.9-56.9 33.1-79.8l-57.8-57.8 35.4-35.4 57.8 57.8c22.9-17.2 50.2-28.8 79.8-33.1v-81.8h50v81.8c29.6 4.2 56.9 15.9 79.8 33.1l57.8-57.8 35.4 35.4-57.8 57.8c17.2 22.9 28.8 50.2 33.1 79.8h81.8zM814.6 181.2c-2.9-20.6-11.1-40.2-23.6-56.9l-10.8-14.5-14.4-10.8c-16.7-12.5-36.3-20.6-56.9-23.6l-17.9-2.6-17.9 2.6c-20.6 2.9-40.2 11.1-56.9 23.6l-14.5 10.8-10.8 14.5c-12.5 16.7-20.6 36.3-23.6 56.9l-2.6 17.9 2.6 17.9c2.9 20.6 11.1 40.2 23.6 56.9l10.8 14.5 14.5 10.8c16.7 12.5 36.3 20.6 56.9 23.6l17.9 2.6 17.9-2.6c20.6-2.9 40.2-11.1 56.9-23.6l14.5-10.8 10.8-14.5c12.5-16.7 20.6-36.3 23.6-56.9l2.6-17.9-2.7-17.9zM277.4 260.5h76.1v-50h-231.1v-220h231.1v-50h-281.1v320h155v153.3h220.6v-50h-170.6v-103.3zM484.4 441h50v66.4h200v320h-450v-320h200v-66.4zM334.4 557.5v220h350v-220h-350z"  horiz-adv-x="1024" />

    
    </font>
</defs>
</svg>
